<?xml version="1.0" encoding="UTF-8" standalone="no"?>
<svg
   xmlns:dc="http://purl.org/dc/elements/1.1/"
   xmlns:cc="http://creativecommons.org/ns#"
   xmlns:rdf="http://www.w3.org/1999/02/22-rdf-syntax-ns#"
   xmlns:svg="http://www.w3.org/2000/svg"
   xmlns="http://www.w3.org/2000/svg"
   viewBox="0 0 494 472"
   height="472"
   width="494"
   id="svg3753"
   version="1.1">
  <metadata
     id="metadata3759">
    <rdf:RDF>
      <cc:Work
         rdf:about="">
        <dc:format>image/svg+xml</dc:format>
        <dc:type
           rdf:resource="http://purl.org/dc/dcmitype/StillImage" />
        <dc:title></dc:title>
      </cc:Work>
    </rdf:RDF>
  </metadata>
  <defs
     id="defs3757" />
  <path
     id="path3771"
     d="m 249.34027,458.25662 c -3.11285,-0.91982 -6.11285,-2.04585 -6.66666,-2.50227 -2.90306,-2.39254 -6.84224,-3.00743 -8.9677,-1.39982 -0.71174,0.53834 -2.26904,0.9788 -3.46065,0.9788 -1.19161,0 -2.35198,0.3 -2.57859,0.66667 -0.23009,0.37229 -3.26482,0.659 -6.87268,0.64931 -4.95074,-0.0133 -7.5513,-0.38032 -11.12732,-1.57036 -6.57914,-2.18944 -11.6372,-4.60356 -11.65312,-5.56183 -0.007,-0.44892 -0.89869,-1.27394 -1.98053,-1.83338 -1.63038,-0.8431 -2.56933,-0.88798 -5.48693,-0.26227 -3.9587,0.84899 -14.36729,0.35733 -15.45463,-0.73001 C 174.71115,446.31115 173.86,446 173.2,446 c -0.66,0 -1.8,-0.6 -2.53333,-1.33333 -0.73334,-0.73334 -2.05124,-1.33334 -2.92868,-1.33334 -0.87744,0 -1.76802,-0.45 -1.97908,-1 -0.21105,-0.55 -0.80423,-1 -1.31817,-1 -0.51394,0 -2.54836,-1.61022 -4.52092,-3.57828 l -3.58649,-3.57828 -7,-0.44967 c -5.82636,-0.37427 -7.69859,-0.7837 -11.16666,-2.44197 C 135.84948,430.17715 134,428.85793 134,428.31307 c 0,-1.22218 0.59065,-1.24311 1.94751,-0.069 1.28914,1.11553 6.84828,2.75062 12.93449,3.80438 5.3446,0.92535 6.62898,0.33942 4.93226,-2.25009 -0.57783,-0.8819 -1.25581,-2.6973 -1.50663,-4.03424 -0.25081,-1.33694 -0.68858,-2.4308 -0.97282,-2.4308 -0.52151,0 -0.85758,-1.31333 -2.04708,-8 -0.89564,-5.03471 -0.90016,-5.17017 -0.31703,-9.5 0.34652,-2.57296 0.28475,-3.83333 -0.18787,-3.83333 -0.38728,0 -0.88955,0.3 -1.11616,0.66667 C 147.1836,403.44828 146,403.5618 146,402.82651 c 0,-0.27875 0.75,-1.31565 1.66667,-2.30423 0.91666,-0.98859 1.66666,-2.06672 1.66666,-2.39584 0,-0.32913 0.75,-1.40768 1.66667,-2.39678 0.91667,-0.9891 1.66667,-1.95292 1.66667,-2.14183 0,-0.18891 0.7205,-1.29845 1.60111,-2.46565 0.88062,-1.1672 2.06531,-3.24719 2.63265,-4.62219 0.56734,-1.375 1.49684,-2.5 2.06555,-2.5 0.56871,0 1.03402,-0.50528 1.03402,-1.12285 0,-1.46846 2.54445,-6.84381 4.04425,-8.54382 0.64697,-0.73333 2.18524,-3.43087 3.41838,-5.99453 1.29124,-2.68447 2.72876,-4.75493 3.38972,-4.88221 0.6312,-0.12156 1.14765,0.1093 1.14765,0.51302 0,1.3779 -4.64122,10.12927 -5.96527,11.24797 -0.72632,0.61367 -1.85626,2.76575 -2.51098,4.78242 -0.65473,2.01667 -1.44745,3.51667 -1.7616,3.33333 -0.53668,-0.3132 -1.69505,1.555 -3.97984,6.41862 -0.53878,1.1469 -1.30206,2.28457 -1.69617,2.52814 -0.39411,0.24358 -1.0517,1.7052 -1.46131,3.24806 -0.68622,2.5848 -1.71968,5.26304 -3.43577,8.90392 -0.97501,2.06859 0.37023,18.3457 1.55294,18.79015 0.32523,0.12223 0.59133,0.77952 0.59133,1.46066 0,0.68113 0.281,1.4121 0.62446,1.62436 0.80397,0.49689 2.70888,4.30611 2.70888,5.41693 0,0.46896 0.58465,1.03821 1.29923,1.265 0.71457,0.2268 1.47455,0.96476 1.68883,1.6399 0.21428,0.67514 1.27963,1.5962 2.36744,2.04678 1.0878,0.45058 1.97783,1.09027 1.97783,1.42153 0,0.33126 0.75,0.88744 1.66667,1.23595 0.91666,0.34852 1.66666,0.9411 1.66666,1.31684 0,0.37574 0.40777,0.68316 0.90616,0.68316 0.49838,0 2.67338,0.96826 4.83333,2.15167 3.76524,2.06295 4.23863,2.15229 11.48021,2.16667 6.46284,0.0129 7.67749,-0.15507 8.4153,-1.16325 0.54032,-0.73833 1.28947,-1.01431 2.00644,-0.73919 1.1466,0.44 9.02523,-2.87684 9.02523,-3.79954 0,-0.2595 0.75,-0.66005 1.66667,-0.89012 0.91666,-0.23007 1.66666,-0.71259 1.66666,-1.07227 0,-0.35968 0.3406,-0.65397 0.75689,-0.65397 1.46751,0 5.923,-5.61776 7.00577,-8.83333 0.21607,-0.64167 0.80786,-1.16667 1.3151,-1.16667 1.11043,0 1.10637,-0.0605 0.17522,2.61063 -0.66253,1.90051 -2.14789,3.83129 -6.94808,9.03157 -0.74897,0.8114 -2.84897,2.03292 -4.66666,2.71449 -1.8177,0.68157 -3.54481,1.63014 -3.83803,2.10793 -0.29322,0.4778 -1.32822,0.86872 -2.3,0.86872 -1.37423,0 -1.58909,0.17778 -0.96687,0.8 0.44,0.44 0.8,1.3212 0.8,1.95822 0,0.77738 1.47968,1.851 4.5,3.26509 2.475,1.15878 5.02482,2.38001 5.66626,2.71385 3.28158,1.70786 17.68794,1.82623 23.14894,0.19019 2.50893,-0.75164 5.15495,-2.24945 4.01813,-2.27451 -1.53031,-0.0337 -5.2055,-3.35746 -6.99497,-6.32605 -2.7536,-4.56799 -6.33836,-11.94117 -6.33836,-13.03681 0,-0.57639 -0.45305,-2.57355 -1.00677,-4.43813 -0.84597,-2.84868 -1.21865,-3.33475 -2.33333,-3.04325 -1.51468,0.3961 -1.70224,-0.5313 -0.54318,-2.68576 1.05844,-1.96744 1.79089,-5.62346 2.56226,-12.78951 0.35521,-3.3 0.95788,-8.1 1.33924,-10.66667 0.38138,-2.56666 1.0016,-7.06666 1.37828,-10 1.56515,-12.18836 2.74401,-19.78863 3.86664,-24.92879 C 229.03591,358.3401 230,351.66945 230,349.08075 c 0,-1.3377 0.27395,-2.9531 0.60879,-3.5898 0.33484,-0.63669 0.97726,-4.15762 1.4276,-7.82428 0.45035,-3.66667 1.07383,-7.35446 1.38551,-8.19508 0.31169,-0.84063 1.18123,-6.24063 1.93231,-12 0.75108,-5.75938 1.9271,-13.17159 2.61337,-16.47159 0.68627,-3.3 1.59276,-9.3 2.01441,-13.33333 0.42166,-4.03334 1.34821,-10.67818 2.059,-14.76633 1.85221,-10.65309 1.86195,-10.58598 -1.77,-12.19257 -2.29175,-1.01375 -3.38217,-1.18345 -4.33334,-0.6744 -1.04835,0.56106 -1.27098,0.45236 -1.27098,-0.62056 0,-1.44339 -4.58702,-5.41281 -6.25498,-5.41281 -1.1641,0 -2.81694,1.18411 -6.28133,4.5 -1.24503,1.19167 -2.4814,2.16667 -2.74749,2.16667 -0.26608,0 -1.18837,0.75 -2.04954,1.66666 C 216.47217,263.25 215.40197,264 214.95511,264 c -0.44685,0 -0.98514,0.45 -1.1962,1 -0.43174,1.12513 -2.79415,1.35501 -3.42558,0.33333 -0.22661,-0.36666 0.0339,-0.66666 0.57894,-0.66666 0.54502,0 1.5809,-0.75 2.30196,-1.66667 0.72105,-0.91667 1.77581,-1.66667 2.34392,-1.66667 0.5681,0 1.441,-0.58262 1.93976,-1.29471 0.9609,-1.37187 6.70404,-5.49905 8.66876,-6.22962 1.44325,-0.53667 1.56763,-3.69698 0.16666,-4.23458 -0.55,-0.21106 -1,-0.85302 -1,-1.42659 0,-0.57356 -0.525,-1.62148 -1.16666,-2.32872 -1.29216,-1.42417 -2.88196,-11.89797 -2.03556,-13.41041 0.27249,-0.4869 0.5506,-2.57378 0.61804,-4.63751 0.1016,-3.10896 0.38674,-3.92529 1.66328,-4.76171 0.84736,-0.55521 1.73619,-1.00948 1.97516,-1.00948 0.52475,0 0.0586,2.09495 -1.24165,5.58034 -1.98207,5.31302 -1.06247,12.82997 2.63409,21.53149 0.88076,2.07324 4.39345,5.55484 5.60446,5.55484 0.33853,0 0.61551,0.39022 0.61551,0.86715 0,1.83581 13.3273,6.38235 16.14688,5.50843 0.46921,-0.14543 2.09279,-0.43732 3.60793,-0.64866 l 2.75481,-0.38424 0.0382,2.77036 c 0.021,1.52369 0.2026,3.99658 0.40349,5.49532 0.39574,2.95225 0.005,2.39388 -1.5919,-2.27503 l -1.02611,-3 -3.91402,-0.34783 c -2.21675,-0.197 -4.29745,-0.0525 -4.79823,0.33334 -0.54038,0.41629 -1.15956,3.40309 -1.59234,7.68116 -0.81147,8.02149 -1.81205,14.94392 -5.44438,37.66666 -0.70336,4.4 -1.7142,11.8401 -2.24632,16.53354 -0.53211,4.69344 -1.15752,8.84104 -1.3898,9.21688 -0.23228,0.37584 -0.69985,3.13575 -1.03903,6.13313 -1.28719,11.37508 -1.83444,15.57257 -2.53577,19.44979 -0.39794,2.2 -0.97949,6.17074 -1.29234,8.82387 -0.31284,2.65313 -0.96478,5.30099 -1.44876,5.88415 -0.73131,0.88118 -0.72348,1.15696 0.0464,1.63276 0.73168,0.45221 0.76638,0.8968 0.16514,2.11586 -0.71962,1.45908 -0.95341,2.6836 -1.88574,9.87669 -0.21386,1.65 -0.64827,3.6 -0.96536,4.33333 -0.31708,0.73334 -0.7398,3.13334 -0.93938,5.33334 -0.19958,2.2 -0.65804,5.8 -1.01879,8 -1.69811,10.3556 -1.94905,15.46371 -0.90595,18.44055 0.55751,1.59103 1.08074,3.64278 1.16273,4.55945 0.31149,3.48252 1.21578,6.64766 2.1117,7.39121 0.51164,0.42463 0.93026,1.17041 0.93026,1.65729 0,0.48688 0.46693,1.14654 1.03761,1.46592 0.57068,0.31937 1.43388,1.75928 1.91821,3.19979 0.48433,1.44051 1.50101,2.90819 2.25928,3.26151 0.75827,0.35332 1.7299,1.29868 2.15919,2.1008 1.09668,2.04917 11.40926,7.27891 16.83434,8.53707 2.49742,0.57919 6.69716,1.04941 9.33274,1.04493 3.99992,-0.007 5.67236,-0.39246 10.11845,-2.33333 2.92957,-1.27885 5.58626,-2.32519 5.90377,-2.32519 0.49688,0 1.85876,-0.9796 5.57494,-4.01005 1.22108,-0.99577 1.52814,-0.80715 1.52814,0.93872 0,2.04533 1.06125,2.42381 8,2.85311 9.75434,0.6035 19.65658,-2.3904 24.96825,-7.54903 1.89789,-1.84321 2.18134,-2.48863 1.76939,-4.02897 -0.38599,-1.44326 -0.91236,-1.85538 -2.46981,-1.9337 -1.0886,-0.0547 -3.30055,-0.73792 -4.91544,-1.51815 -1.61489,-0.78023 -3.25482,-1.42686 -3.64428,-1.43695 -0.38945,-0.0101 -1.4581,-1.05184 -2.37477,-2.31498 -0.91666,-1.26315 -1.98937,-2.30489 -2.38379,-2.31498 -1.25848,-0.0322 -3.58972,-3.07312 -6.06597,-7.91256 -0.36052,-0.70458 -2.7604,0.77279 -2.4728,1.52226 0.1885,0.49123 0.0369,2.35088 -0.33684,4.13254 -0.37377,1.78168 -0.87066,4.1394 -1.10421,5.2394 -0.58957,2.7768 -2.09291,5.99567 -3.2479,6.95423 -0.53319,0.44251 -1.16702,1.70411 -1.4085,2.80355 -0.40517,1.84476 -1.91885,3.19225 -2.70398,2.40712 -0.45559,-0.45559 1.83678,-5.1649 2.51413,-5.1649 0.29876,0 0.5432,-0.46214 0.5432,-1.02699 0,-0.56485 0.5924,-1.83985 1.31645,-2.83333 0.98127,-1.34642 1.49036,-3.67353 1.99945,-9.13968 1.04447,-11.2147 0.90189,-13.81768 -0.98257,-17.93752 -0.91667,-2.00404 -1.66667,-4.42783 -1.66667,-5.3862 0,-0.95837 -0.41452,-2.55259 -0.92116,-3.54272 -0.50665,-0.99012 -1.13084,-3.15022 -1.38709,-4.80022 -0.25625,-1.65 -0.88705,-4.5 -1.40177,-6.33334 -2.6039,-9.27449 -6.28587,-24.64221 -8.99533,-37.54454 -0.33239,-1.58284 -0.73962,-3.09675 -0.90495,-3.36426 -0.52188,-0.84442 -4.5254,-16.27576 -5.126,-19.75786 -0.75564,-4.38102 -1.56507,-7.85312 -2.87522,-12.33334 -0.58974,-2.01666 -1.39732,-5.31666 -1.79462,-7.33333 -0.39731,-2.01667 -1.44346,-6.01242 -2.32478,-8.87945 C 262.72108,298.25353 262,295.3088 262,294.57673 c 0,-0.73208 -0.25915,-1.83633 -0.57587,-2.45389 -0.31674,-0.61756 -0.74718,-2.86834 -0.95654,-5.00173 -0.32581,-3.32002 -0.24284,-3.76451 0.57588,-3.08504 0.52609,0.43662 0.95653,1.93942 0.95653,3.33955 0,1.40013 0.3,2.7311 0.66667,2.95771 0.36666,0.22662 0.66666,1.30396 0.66666,2.3941 0,1.09013 0.48864,3.09742 1.08586,4.46065 0.59722,1.36322 1.62235,5.32859 2.27806,8.81192 0.65571,3.48333 1.68792,7.98333 2.29379,10 0.60588,2.01667 1.54025,5.46667 2.07639,7.66667 0.53614,2.2 1.54368,5.8 2.23898,8 0.69529,2.2 1.45706,5.2 1.6928,6.66666 0.23574,1.46667 0.88945,4.16667 1.45268,6 2.1317,6.93878 2.45881,8.09646 3.29648,11.66667 0.47318,2.01667 1.3606,6.06667 1.97206,9 0.61146,2.93333 1.6745,6.79834 2.36232,8.5889 0.68782,1.79057 1.26066,3.89057 1.27298,4.66667 0.0123,0.7761 1.07946,5.6111 2.37144,10.74443 1.29196,5.13333 2.59789,10.53333 2.90205,12 1.51898,7.3246 5.12569,17.99301 6.57189,19.43921 0.59485,0.59485 1.15161,1.55893 1.23725,2.1424 0.0856,0.58347 0.47203,1.1663 0.85867,1.29518 0.38663,0.12888 0.70297,0.50532 0.70297,0.83653 0,1.14376 3.6694,5.90282 4.57072,5.92805 0.49723,0.0139 1.51124,0.7972 2.25335,1.74065 2.4931,3.16947 10.02174,5.90725 19.08773,6.94125 4.5126,0.51468 5.9859,0.38918 11.14413,-0.94922 3.26924,-0.84827 6.84407,-2.0276 7.94407,-2.62074 1.1,-0.59314 2.675,-1.08028 3.5,-1.08254 0.87101,-0.003 1.5,-0.4136 1.5,-0.98065 0,-0.5371 0.57968,-1.28678 1.28819,-1.66595 0.7085,-0.37918 1.47871,-1.28974 1.71158,-2.02346 0.23288,-0.73372 0.79764,-1.33404 1.25502,-1.33404 0.45738,0 1.33531,-0.975 1.95096,-2.16667 0.61565,-1.19167 1.39094,-2.61667 1.72287,-3.16667 2.82529,-4.68144 4.06255,-8.5279 4.74862,-14.76276 0.44565,-4.04994 0.5005,-6.93106 0.13652,-7.17042 C 362.47911,401.18007 361.9915,400.1 361.7302,399 c -0.4637,-1.95203 -2.28905,-6.32167 -4.03811,-9.66667 -0.4793,-0.91666 -1.07995,-2.64166 -1.33475,-3.83333 -0.25481,-1.19167 -0.73945,-2.16667 -1.07698,-2.16667 -0.33753,0 -0.62173,-0.525 -0.63156,-1.16666 -0.01,-0.64167 -1.43483,-2.70692 -3.16667,-4.58944 -4.62065,-5.02268 -6.97596,-8.13116 -8.21229,-10.83839 -0.6042,-1.32303 -2.78536,-4.05551 -4.84703,-6.07217 -2.06166,-2.01667 -3.7502,-3.87046 -3.75231,-4.11953 -0.006,-0.67539 -5.37597,-8.63374 -6.9612,-10.31602 -3.54253,-3.75942 -4.37597,-4.80536 -4.37597,-5.49175 0,-0.40666 -0.3,-0.73937 -0.66666,-0.73937 -0.36667,0 -0.67363,-0.525 -0.68214,-1.16667 -0.0134,-1.01242 -2.2131,-3.95702 -5.64444,-7.55592 -0.55372,-0.58076 -1.00676,-1.3336 -1.00676,-1.67297 0,-0.33937 -0.6,-0.99175 -1.33333,-1.44973 -0.73333,-0.45797 -1.33333,-1.24804 -1.33333,-1.7557 0,-0.50766 -0.3784,-1.06823 -0.84089,-1.2457 -0.46249,-0.17748 -1.4986,-1.63457 -2.30247,-3.238 -0.80386,-1.60342 -3.27546,-4.95465 -5.49244,-7.44718 C 301.81389,311.97561 300,309.62187 300,309.23762 c 0,-0.63765 -2.328,-3.71219 -8.66667,-11.44586 -1.28333,-1.56577 -2.93333,-4.03445 -3.66666,-5.48597 -0.73334,-1.45152 -1.70834,-2.87903 -2.16667,-3.17225 -0.45833,-0.29322 -0.83333,-0.83129 -0.83333,-1.19571 0,-0.36442 -1.02808,-1.77451 -2.28462,-3.13354 -2.79858,-3.02683 -5.71538,-7.26141 -5.71538,-8.29751 0,-0.42203 1.05,0.37899 2.33333,1.78007 1.28333,1.40108 2.33333,2.70115 2.33333,2.88906 0,0.1879 1.2,1.6435 2.66667,3.23464 1.46667,1.59114 2.66667,3.3497 2.66667,3.90789 0,0.55819 0.30242,1.01489 0.67206,1.01489 0.36964,0 1.15571,1.20876 1.74684,2.68612 0.59112,1.47736 1.63869,2.98792 2.32793,3.35679 0.68924,0.36887 1.25317,0.98026 1.25317,1.35865 0,0.37839 0.9858,1.64284 2.19066,2.80988 3.01915,2.92437 6.20241,7.14858 6.77748,8.99375 0.26372,0.84619 2.5418,3.84619 5.06238,6.66667 2.5206,2.82048 5.11988,6.14344 5.77619,7.38437 0.65631,1.24092 1.84407,3.04092 2.63948,4 0.79541,0.95907 2.66163,3.24377 4.14715,5.07711 1.48552,1.83333 3.08472,3.80294 3.5538,4.37692 0.46907,0.57398 1.43695,2.07398 2.15085,3.33334 0.71389,1.25935 1.98889,2.83651 2.83333,3.50479 0.84444,0.66828 1.53534,1.50594 1.53534,1.86147 0,0.69937 0.26921,1.07036 3.31772,4.57205 1.10859,1.27338 2.01562,2.66163 2.01562,3.08501 0,0.82552 7.80685,10.44678 8.78664,10.82876 0.32308,0.12596 1.30116,1.62596 2.17351,3.33333 0.87235,1.70738 2.51319,4.13336 3.6463,5.39107 1.13312,1.2577 2.06021,2.61054 2.06021,3.0063 0,0.39576 0.57126,1.07632 1.26947,1.51236 0.69821,0.43603 1.93733,2.13008 2.75363,3.76453 2.19412,4.3933 9.62602,11.33955 13.31024,12.44045 1.65,0.49305 3.3,1.10451 3.66666,1.35881 1.94754,1.35068 9.3762,3.34628 13.87094,3.72623 2.87342,0.24289 5.12906,0.74236 5.12906,1.13574 0,0.43744 0.30162,0.40056 0.8,-0.0978 0.44,-0.44 1.62338,-0.8 2.62974,-0.8 1.00635,0 4.1338,-1.05 6.94989,-2.33333 2.81609,-1.28334 5.5608,-2.33334 6.09935,-2.33334 0.53855,0 1.13608,-0.6 1.32786,-1.33333 0.19177,-0.73333 0.72916,-1.33333 1.1942,-1.33333 1.12178,0 6.23857,-5.3065 6.74975,-7 0.22135,-0.73334 0.94747,-1.93334 1.61359,-2.66667 2.51988,-2.77415 3.5062,-7.5044 3.40572,-16.33333 -0.097,-8.51934 -0.37452,-9.86187 -3.239,-15.66667 -2.63668,-5.34313 -3.3722,-6.52474 -4.43002,-7.11673 -0.54828,-0.30683 -1.18026,-1.3928 -1.40439,-2.41327 -0.63076,-2.87181 -6.16678,-6.86894 -18.12058,-13.08347 -1.88314,-0.979 -3.95463,-2.36648 -4.60332,-3.08327 C 389.65743,322.58647 388.84135,322 388.49261,322 c -0.34874,0 -1.79692,-0.92099 -3.21818,-2.04665 -1.42126,-1.12566 -2.8687,-1.87077 -3.21654,-1.6558 -0.34784,0.21498 -0.81074,0.10234 -1.0287,-0.25031 -0.21794,-0.35265 -2.97006,-1.91035 -6.1158,-3.46157 -3.14574,-1.55121 -6.08308,-3.18393 -6.5274,-3.62826 -0.44433,-0.44432 -2.48856,-1.75638 -4.54273,-2.91568 -2.05417,-1.15931 -4.09598,-2.54296 -4.53735,-3.07478 C 358.86453,304.43513 358.11514,304 357.64059,304 c -0.47454,0 -0.96281,-0.225 -1.08504,-0.5 -0.12222,-0.275 -2.17222,-1.38128 -4.55555,-2.45839 -2.38333,-1.07712 -4.83142,-2.50212 -5.44019,-3.16667 -0.60878,-0.66455 -1.58378,-1.20827 -2.16667,-1.20827 -0.58289,0 -1.64956,-0.58976 -2.37037,-1.31057 -0.72081,-0.72081 -2.74581,-2.0805 -4.5,-3.02153 -1.75419,-0.94104 -4.53944,-2.59642 -6.18944,-3.67864 -1.65,-1.08221 -3.45,-2.1447 -4,-2.36108 -0.55,-0.21637 -1.75,-0.8376 -2.66666,-1.3805 -0.91667,-0.5429 -2.62116,-1.41618 -3.78775,-1.94062 -1.16659,-0.52444 -2.3093,-1.25808 -2.53935,-1.6303 -0.23004,-0.37222 -1.00056,-0.67676 -1.71225,-0.67676 -0.71169,0 -1.29399,-0.30942 -1.29399,-0.68759 0,-0.37818 -0.525,-0.87392 -1.16666,-1.10165 -0.64167,-0.22774 -2.51667,-1.35435 -4.16667,-2.5036 -4.64686,-3.2366 -13.53585,-8.38326 -16.83333,-9.74639 -1.00834,-0.41683 -1.83334,-1.02853 -1.83334,-1.35933 0,-0.93926 0.71181,-0.74016 5,1.39856 2.2,1.09724 4.3,2.0083 4.66667,2.02458 0.36667,0.0163 1.70533,0.91741 2.97482,2.00251 1.26948,1.0851 2.72203,1.97291 3.22789,1.97291 0.50586,0 1.71719,0.62255 2.69185,1.38345 2.7308,2.13189 8.55947,5.55044 14.43877,8.46843 2.93334,1.45586 6.93848,3.73477 8.90033,5.06424 1.96185,1.32946 3.74634,2.41721 3.96555,2.41721 0.2192,0 2.41068,1.35 4.86997,3 2.45929,1.65 4.79979,3 5.20112,3 0.40133,0 0.7297,0.25264 0.7297,0.56141 0,0.30878 3.71643,2.43918 8.25872,4.73422 4.54229,2.29504 9.15455,4.96741 10.24945,5.93859 1.0949,0.97118 3.30348,2.47101 4.90794,3.33297 1.60448,0.86196 4.56722,2.47698 6.58389,3.58893 2.01667,1.11195 6.21667,3.35418 9.33333,4.98272 3.11667,1.62854 6.41667,3.65427 7.33334,4.50163 0.91666,0.84736 2.71666,2.06676 4,2.70978 1.28333,0.64302 2.48333,1.3679 2.66666,1.61084 0.60872,0.80663 5.44498,2.83165 9.58368,4.01283 5.96516,1.70246 18.32888,1.73424 26.32292,0.0677 3.43197,-0.71549 6.73197,-1.70954 7.33334,-2.209 0.60137,-0.49946 1.92682,-1.26352 2.94544,-1.69792 1.01862,-0.43439 2.02572,-1.2424 2.23799,-1.79557 0.21227,-0.55317 0.81327,-1.00577 1.33555,-1.00577 0.52228,0 1.13488,-0.525 1.36135,-1.16666 0.22646,-0.64167 0.98921,-1.8096 1.69499,-2.59539 3.17182,-3.53142 7.0438,-12.05798 7.99528,-17.60654 0.71602,-4.17554 0.64826,-5.19045 -0.69847,-10.46112 -0.82029,-3.21033 -2.08107,-7.05667 -2.80175,-8.54743 -0.72067,-1.49077 -1.31032,-2.90577 -1.31032,-3.14445 0,-0.23868 -1.06476,-1.49873 -2.36614,-2.8001 -1.30137,-1.30137 -2.18366,-2.66137 -1.96065,-3.02222 0.81607,-1.32044 2.14741,-0.59597 3.38848,1.84391 0.69941,1.375 1.79665,2.89202 2.43831,3.37114 0.64167,0.47912 1.17334,1.22912 1.1815,1.66666 0.0223,1.1997 2.45667,4.12887 3.43133,4.12887 1.12221,0 1.09597,19.408 -0.0291,21.51018 -0.41272,0.77119 -0.75041,2.15418 -0.75041,3.07331 0,0.91914 -0.3,1.85656 -0.66667,2.08318 -0.36666,0.22661 -0.66666,0.85686 -0.66666,1.40055 0,0.54369 -0.63228,1.65099 -1.40506,2.46065 -0.77278,0.80968 -2.12811,2.59962 -3.01185,3.97766 -2.1075,3.28629 -5.15179,6.15406 -7.61671,7.17506 -2.19744,0.91021 -2.4287,1.57256 -2.90486,8.31941 -0.49266,6.98075 -0.96955,8.86215 -3.63035,14.32215 -1.56531,3.21206 -3.66665,6.17996 -5.90015,8.33334 -3.71231,3.57909 -7.72075,6.34451 -9.19631,6.34451 -1.69904,0 -3.00139,2.05958 -3.00139,4.74649 0,1.45819 -0.6,3.89311 -1.33334,5.41094 -0.7333,1.51779 -1.3333,3.25663 -1.3333,3.86407 0,0.60743 -0.74963,1.97608 -1.66585,3.04144 -0.91622,1.06537 -1.66761,2.23703 -1.66976,2.6037 -0.005,0.87441 -3.88166,5 -4.69818,5 -0.34808,0 -0.63288,0.45742 -0.63288,1.0165 0,0.55907 -0.73541,1.2961 -1.63425,1.63784 -0.89884,0.34174 -2.77682,1.34261 -4.17329,2.22416 -1.39647,0.88156 -5.2871,2.46953 -8.64584,3.52883 -5.77577,1.82159 -6.14869,2.05263 -6.87925,4.26186 -0.79903,2.41629 -5.38423,7.99747 -6.57028,7.99747 -0.37013,0 -1.28952,0.86588 -2.04309,1.92418 -0.75358,1.05829 -2.574,2.40586 -4.0454,2.9946 -1.4714,0.58874 -2.67526,1.30267 -2.67526,1.58652 0,0.52594 -8.06423,2.49538 -13.1324,3.2072 -2.46862,0.34671 -2.88912,0.666 -3.56194,2.70466 -0.41958,1.27135 -1.935,3.66583 -3.3676,5.32108 -1.4326,1.65524 -2.60473,3.2987 -2.60473,3.65214 0,0.35344 -0.675,0.93966 -1.5,1.30269 -0.825,0.36303 -2.4,1.25911 -3.5,1.99127 -1.1,0.73216 -2.52163,1.51181 -3.15917,1.73256 -0.63754,0.22074 -1.02027,0.6261 -0.8505,0.90079 0.62622,1.01325 -10.68656,2.99643 -17.14744,3.00601 l -6.49043,0.01 -1.8429,2.66667 c -1.01359,1.46666 -2.29289,3.05439 -2.84289,3.52827 -1.07373,0.92513 -7.59199,4.12096 -11.20923,5.49575 -2.98064,1.13285 -16.63096,1.18924 -18.64807,0.077 -2.55368,-1.40806 -6.36385,-1.21495 -8.45308,0.42844 -1.02819,0.80878 -2.27555,1.4705 -2.77191,1.4705 -0.49636,0 -1.50305,0.51423 -2.23709,1.14273 -4.29734,3.67949 -14.91554,4.46703 -24.00702,1.78055 z m 125.3264,-41.75589 c 2.38333,-1.11719 4.56018,-2.41356 4.83746,-2.88084 0.27726,-0.46726 1.62726,-1.52001 3,-2.33943 3.68263,-2.19826 6.8077,-5.31562 7.88132,-7.86187 1.19181,-2.8266 1.30012,-2.47855 -1.152,-3.70183 -1.5949,-0.79563 -2.3204,-0.86455 -3.01685,-0.28655 -1.13188,0.93938 -10.4143,-1.06186 -11.61046,-2.50314 C 374.18297,396.41718 373.4194,396 372.90933,396 c -0.51008,0 -1.44835,-0.27549 -2.08504,-0.61219 C 368.43907,394.12642 363.32335,392 362.67393,392 c -0.85172,0 -0.86822,-0.19939 0.38966,4.71059 1.25776,4.90952 1.4907,14.39868 0.457,18.61697 -0.40355,1.64683 -0.57842,3.24553 -0.3886,3.55267 0.6317,1.02212 7.14376,-0.32126 11.53468,-2.3795 z m 57.30311,-55.1674 c 1.18905,-0.91666 2.50728,-2.05606 2.9294,-2.532 0.42212,-0.47594 1.26118,-1.37594 1.86458,-2 1.24895,-1.29172 3.54061,-5.00369 4.60434,-7.45798 0.39491,-0.91117 1.15775,-2.58332 1.69519,-3.7159 0.53744,-1.13258 1.20759,-4.68726 1.48922,-7.89928 l 0.51204,-5.84006 -1.69894,0.31034 c -0.93442,0.17068 -4.06887,0.94506 -6.96545,1.72086 -4.29481,1.1503 -6.63187,1.36102 -12.66667,1.14216 -4.07008,-0.14762 -7.85016,-0.37183 -8.40016,-0.49826 -2.23172,-0.51302 -0.0747,6.69714 2.484,8.30325 0.46714,0.29322 0.84934,0.90155 0.84934,1.35184 0,0.45029 0.58238,1.31736 1.29417,1.92682 1.50231,1.28632 3.80816,8.27752 4.40234,13.34766 0.623,5.31599 0.57129,5.24574 3.17713,4.31614 1.24716,-0.44491 3.24042,-1.55892 4.42947,-2.47559 z m -302.93755,63.65361 c -1.40892,-1.29051 -2.36254,-2.54551 -2.11917,-2.78889 0.24337,-0.24337 0.79749,-0.0875 1.23139,0.3464 0.43388,0.43388 1.32888,0.78888 1.98888,0.78888 0.66,0 1.2,0.45942 1.2,1.02092 0,0.56152 0.45,1.19361 1,1.40466 0.55,0.21106 1,0.65164 1,0.97908 0,1.25258 -1.8395,0.50369 -4.3011,-1.75105 z m -5.92112,-4.76472 C 122.1934,419.30451 122.71521,418 124,418 c 0.88889,0 1.33333,0.44445 1.33333,1.33333 0,1.2848 -1.30451,1.8066 -2.22222,0.88889 z m -1.94444,-3.62812 c -0.64167,-0.36319 -1.17126,-1.32045 -1.17688,-2.12723 -0.005,-0.80678 -0.26173,-1.86356 -0.56914,-2.34842 -0.66106,-1.0426 -4.6779,-2.06434 -8.42065,-2.1419 -1.46667,-0.0304 -4.01667,-0.76674 -5.66667,-1.63633 -1.65,-0.86959 -3.975,-2.03657 -5.16666,-2.59329 C 98.975,405.1902 98,404.41939 98,404.03402 c 0,-0.38538 -0.529227,-0.70069 -1.176067,-0.70069 -0.735086,0 -1.609253,-0.9999 -2.331353,-2.66666 C 93.857173,399.2 93.065753,398 92.733867,398 92.40198,398 91.783913,397.175 91.360393,396.16667 90.936867,395.15833 90.0082,393.28333 89.296687,392 c -0.711514,-1.28333 -1.478474,-3.72428 -1.704354,-5.42432 -0.400473,-3.01407 -0.516646,-3.14423 -4.66818,-5.23038 -2.34162,-1.17666 -4.257486,-2.41071 -4.257486,-2.74234 0,-0.78773 0.45976,-0.76061 2.114026,0.12473 0.747834,0.40023 2.35084,0.54176 3.562234,0.3145 2.09712,-0.39343 2.21946,-0.57979 2.55634,-3.89436 0.899413,-8.84916 1.979126,-13.06724 4.28976,-16.75861 0.898826,-1.43593 1.780406,-3.70059 1.95906,-5.03257 0.322666,-2.40564 0.30802,-2.42225 -2.19752,-2.49328 -1.387294,-0.0393 -3.589254,0.50034 -4.893254,1.19924 -2.599806,1.39341 -9.676606,1.74936 -13.1245,0.66012 -1.063046,-0.33583 -3.368853,-0.7816 -5.124006,-0.9906 -2.494446,-0.29704 -3.276582,-0.1575 -3.582282,0.63914 -0.473532,1.23401 1.336593,7.22425 3.018988,9.99073 0.670067,1.10183 1.587207,3.12113 2.038094,4.48733 0.450886,1.3662 1.096533,2.484 1.43476,2.484 0.338233,0 0.614966,0.62809 0.614966,1.39575 0,0.83761 0.536094,1.53594 1.340627,1.74633 0.73734,0.19282 1.514853,1.04476 1.7278,1.8932 0.212947,0.84844 0.73466,1.41575 1.159373,1.26068 1.12864,-0.4121 2.685834,0.7651 2.152847,1.62749 -0.703127,1.13768 -5.215013,-1.75214 -7.087127,-4.53923 -4.5157,-6.72274 -6.772824,-12.36136 -8.960334,-22.38422 -0.160052,-0.73333 -1.575494,-2.141 -3.145428,-3.12816 -2.608775,-1.64038 -5.600368,-3.94938 -8.471432,-6.5385 C 48.707617,339.45641 46,334.88653 46,333.83171 c 0,-0.41732 -0.787183,-1.58039 -1.749294,-2.58462 -1.616298,-1.68705 -1.808242,-2.52922 -2.524624,-11.07698 -0.772918,-9.22234 -0.782511,-9.25862 -3.084039,-11.66643 -6.220278,-6.50751 -8.227213,-9.74153 -10.034844,-16.17035 -1.362532,-4.84583 -1.22249,-15.78739 0.261287,-20.41449 l 1.201819,-3.74783 -2.035152,-3.01552 C 26.915819,263.49695 26,261.86483 26,261.52853 c 0,-0.33628 -0.594028,-1.84092 -1.320063,-3.34364 -1.284198,-2.65798 -3.058548,-14.36627 -2.350722,-15.51156 0.193824,-0.31362 0.650627,-2.16841 1.015117,-4.12177 0.364489,-1.95336 1.603886,-5.47523 2.754214,-7.82639 1.645777,-3.36381 1.931298,-4.50042 1.339758,-5.33334 -3.358185,-4.72849 -4.378352,-14.3953 -2.446023,-23.17784 0.63095,-2.8677 1.503741,-5.66399 1.939536,-6.21399 0.435796,-0.55 1.173771,-1.76644 1.639944,-2.7032 0.466174,-0.93676 1.780146,-2.70103 2.919938,-3.92061 2.061904,-2.20624 2.068408,-2.23649 1.290325,-6.0036 -1.103019,-5.34029 -1.032292,-17.97171 0.108179,-19.3201 0.489612,-0.57887 1.287042,-2.10249 1.772064,-3.38582 0.976362,-2.58338 5.73917,-9.33334 6.585653,-9.33334 0.295933,0 0.869264,-0.72691 1.274069,-1.61536 0.404804,-0.88845 1.427959,-1.71345 2.273676,-1.83333 1.466866,-0.20794 1.554449,-0.54029 1.90211,-7.21797 0.316388,-6.07704 0.661874,-7.65926 2.620236,-12 2.212758,-4.90461 6.087286,-10.68738 8.486828,-12.66667 0.666777,-0.55 3.070077,-1.87377 5.340666,-2.94169 4.261788,-2.00446 4.650422,-2.4512 5.560355,-6.39164 2.67414,-11.580243 6.111607,-18.077243 11.344047,-21.440903 3.766426,-2.42124 11.888546,-6.48714 14.55426,-7.285807 2.2386,-0.6707 3.12466,-1.408893 4.272813,-3.559733 l 1.44855,-2.71356 0.2128,2.166666 L 100.75115,76 h 4.91802 c 5.00822,0 11.41122,1.7465 17.22716,4.698913 1.40966,0.7156 2.98466,1.301087 3.5,1.301087 0.51536,0 0.937,0.3 0.937,0.666667 0,0.823486 -1.34712,0.848506 -2.61102,0.04847 -0.56173,-0.35556 -1.61428,-0.34304 -2.59783,0.03093 -1.32229,0.502733 -1.90615,0.357433 -2.91495,-0.72538 -0.69381,-0.744714 -1.62478,-1.355874 -2.06884,-1.358134 -0.44404,-0.002 -1.64503,-0.44104 -2.66885,-0.975073 -3.63423,-1.89564 -12.46865,-2.6255 -15.107887,-1.248147 -0.933506,0.48718 -2.127566,0.887627 -2.653473,0.889887 -0.5259,0.002 -2.1759,0.553553 -3.666667,1.2251 -1.49076,0.671547 -3.91048,1.75084 -5.377146,2.398427 C 86.2,83.600333 84.55,84.55 84,85.063107 c -0.55,0.513113 -2.35,1.923606 -4,3.134426 -3.075127,2.256627 -7.241613,8.81954 -7.30238,11.50246 -0.017,0.751667 -0.33718,1.672897 -0.711453,2.047167 -0.37428,0.37428 -1.030414,3.2957 -1.45808,6.49205 -0.59724,4.46371 -0.594034,6.31915 0.01387,8.00017 0.43528,1.20373 0.791414,2.82254 0.791414,3.59733 0,2.60561 3.534673,9.79992 6.631093,13.49662 1.6892,2.01666 3.41016,4.44416 3.82436,5.39443 0.4142,0.95027 1.831173,2.23935 3.14882,2.86461 1.317647,0.62526 2.395727,1.5752 2.395727,2.11096 0,0.53577 1.176846,1.44501 2.61522,2.02053 1.438366,0.57552 2.778953,1.47309 2.979073,1.9946 0.200127,0.52151 0.780633,0.9482 1.290013,0.9482 1.35734,0 9.842283,4.52104 11.782353,6.278 0.91667,0.83015 2.66722,1.90419 3.89012,2.38675 1.22289,0.48256 2.57289,1.21625 3,1.63042 0.4271,0.41417 2.42655,1.58826 4.44322,2.6091 5.8747,2.97377 8.27521,4.30722 9.181,5.09992 0.46622,0.408 1.74122,1.05332 2.83334,1.43404 1.32133,0.46062 1.98566,1.14378 1.98566,2.04195 0,1.08115 -0.18568,1.19565 -0.93307,0.57537 -0.51319,-0.4259 -3.17285,-1.93341 -5.91035,-3.35001 -2.73752,-1.4166 -6.21167,-3.35486 -7.72036,-4.30725 -1.50868,-0.9524 -3.12402,-1.73708 -3.58964,-1.74376 -0.82341,-0.0118 -5.85984,-3.10816 -7.82212,-4.80898 -1.12482,-0.97494 -3.10558,-2.18488 -5.02974,-3.0724 -0.736233,-0.33958 -2.924433,-1.55246 -4.862666,-2.69529 -1.938267,-1.14281 -3.862273,-2.07785 -4.2756,-2.07785 -0.41332,0 -1.22512,-0.3967 -1.803993,-0.88154 -0.578874,-0.48486 -2.342167,-1.28772 -3.91844,-1.78414 -1.576267,-0.49643 -3.092547,-1.3075 -3.3695,-1.8024 -0.3844,-0.68688 -3.018987,-0.93327 -11.134054,-1.04124 -8.862684,-0.11792 -11.184822,0.0604 -13.963833,1.07242 -5.377336,1.95821 -8.333333,3.32516 -8.333333,3.8536 0,0.2714 -0.59581,0.68255 -1.324021,0.91368 -3.53397,1.12163 -10.731371,11.25772 -12.317264,17.34638 -1.134297,4.35486 -1.295311,11.2175 -0.359519,15.32324 0.334286,1.46666 0.804199,3.56666 1.044249,4.66666 0.666821,3.05562 3.486881,8.82209 4.792351,9.79942 0.640312,0.47936 2.203097,2.22059 3.472855,3.8694 1.269758,1.64882 2.5121,3.08696 2.760761,3.19588 0.24866,0.10892 2.477471,1.41958 4.952913,2.9126 3.420266,2.06285 5.318289,2.76058 7.905906,2.90628 8.688069,0.4892 23.213569,2.34618 27.738435,3.54618 2.75,0.7293 6.8,1.54113 9,1.80407 2.2,0.26294 4.749993,0.75941 5.666663,1.10327 0.91667,0.34386 6.76667,1.20997 13,1.9247 6.23333,0.71474 12.68333,1.60668 14.33333,1.98209 3.05748,0.69565 12.47648,2.04971 22.66667,3.25852 3.11667,0.36972 7.91667,0.97769 10.66667,1.35106 2.75,0.37337 8.86672,1.1468 13.5927,1.71874 4.726,0.57195 9.826,1.45101 11.33334,1.95349 1.50734,0.50247 6.79062,1.39994 11.74062,1.99437 9.70848,1.16586 17.95034,2.79596 18.96667,3.75129 0.80827,0.75975 -0.0253,0.75912 -4.10052,-0.003 -7.56223,-1.41443 -12.11831,-2.10646 -15.86615,-2.40993 -2.2,-0.17814 -5.5,-0.64191 -7.33333,-1.03062 -3.20183,-0.67885 -9.0286,-1.48926 -33,-4.58977 -6.05,-0.78253 -11.68911,-1.71118 -12.53137,-2.06368 -0.84225,-0.35228 -3.27248,-0.64068 -5.40052,-0.64068 -2.12803,0 -4.73891,-0.29451 -5.80196,-0.65447 -1.06305,-0.35995 -3.28282,-0.78389 -4.93282,-0.94207 -3.21787,-0.30848 -24.84963,-3.31577 -31.999993,-4.4487 -2.383333,-0.37762 -5.083333,-0.9649 -6,-1.30508 -0.916666,-0.34018 -3.916666,-0.91234 -6.666666,-1.27149 -2.75,-0.35915 -8.286447,-1.13632 -12.30322,-1.72705 -5.56182,-0.81796 -7.693488,-0.89624 -8.939948,-0.32832 -1.215645,0.55389 -2.423986,0.54462 -4.696779,-0.0361 -2.639663,-0.67438 -3.660287,-0.59604 -7.429201,0.57027 -4.492666,1.39028 -9.120497,3.65029 -10.297519,5.02881 -0.366667,0.42943 -1.566085,1.23079 -2.665373,1.78079 -5.317988,2.66071 -10.440778,10.43549 -12.708584,19.28759 -1.311,5.11734 -0.433679,15.59098 1.710314,20.4181 2.581021,5.81106 2.85708,6.26586 4.029206,6.63787 0.633645,0.20111 1.935046,1.5488 2.892003,2.99486 0.956957,1.44606 2.565487,3.15909 3.574511,3.80674 1.009024,0.64765 2.417549,1.70623 3.130054,2.35241 1.565648,1.41988 5.632802,3.41158 9.704536,4.75234 2.894197,0.953 4.434531,0.9676 19,0.17997 2.92588,-0.15822 6.475593,-1.0117 23,-5.53003 3.33308,-0.91138 14.311619,-3.46034 20.999999,-4.87572 1.46666,-0.31037 8.96666,-2.10351 16.66666,-3.98476 7.7,-1.88124 14.98229,-3.60014 16.18286,-3.81976 1.20057,-0.21963 2.34328,-0.65888 2.53934,-0.97613 0.19607,-0.31725 1.16379,-0.58565 2.15048,-0.59646 0.9867,-0.0108 5.69399,-1.06725 10.46066,-2.34767 4.76666,-1.28042 12.56666,-3.08386 17.33333,-4.00766 4.76667,-0.92381 10.61667,-2.15042 13,-2.72581 2.38333,-0.57539 5.38333,-1.29967 6.66667,-1.60951 1.28333,-0.30985 3.23333,-0.74938 4.33333,-0.97675 1.1,-0.22736 2.6,-0.66819 3.33333,-0.97962 0.73334,-0.31143 2.08334,-0.7154 3,-0.89771 0.91667,-0.18232 3.46667,-0.79423 5.66667,-1.35981 5.01847,-1.29015 5.04047,-1.29033 4.55971,-0.0375 -0.21914,0.57108 -0.78734,0.88908 -1.26268,0.70668 -1.24512,-0.4778 -5.63036,0.85163 -5.63036,1.70691 0,0.45346 -0.86899,0.58154 -2.33334,0.34391 C 209.05,247.58755 208,247.64814 208,247.93044 c 0,0.28231 -1.575,0.82495 -3.5,1.20586 -1.925,0.38092 -5.45,1.17656 -7.83333,1.7681 -2.38334,0.59154 -7.78334,1.84421 -12,2.78372 -4.21667,0.93951 -9.61667,2.28702 -12,2.99448 -2.38334,0.70746 -6.28334,1.72893 -8.66667,2.26995 -2.38333,0.541 -5.97371,1.448 -7.97862,2.01555 -2.00491,0.56755 -4.27991,1.0319 -5.05555,1.0319 -0.77565,0 -1.62342,0.21315 -1.88393,0.47365 -0.26051,0.26052 -2.78551,0.98858 -5.61111,1.61794 -2.8256,0.62934 -7.68746,1.77307 -10.80412,2.54161 -3.11667,0.76853 -7.16667,1.68415 -9,2.03469 -1.83334,0.35055 -5.88334,1.2469 -9,1.9919 -3.11667,0.745 -7.15114,1.65483 -8.96548,2.02185 -1.81435,0.36701 -3.46435,0.90722 -3.66667,1.20045 -0.20232,0.29324 -0.96785,0.56982 -1.70119,0.61463 -2.451503,0.14979 -7.764377,1.91603 -8.281803,2.75324 -0.313667,0.50752 -1.159014,0.6648 -2.186747,0.40686 -0.96182,-0.2414 -2.752133,0.0294 -4.203387,0.63575 -1.39038,0.58094 -5.45764,1.65328 -9.038346,2.38298 -8.609074,1.75442 -13.883318,3.74474 -16.11365,6.08076 -1.003164,1.0507 -2.078575,1.91036 -2.389801,1.91036 -0.756903,0 -3.742825,3.38989 -4.327121,4.91254 -0.256229,0.66772 -0.989357,1.3511 -1.629173,1.51863 C 50.992017,295.40451 48,299.39991 48,300.65732 c 0,0.37181 -0.265027,0.67601 -0.588949,0.67601 -0.633288,0 -0.716276,0.26536 -2.606195,8.33334 -2.396243,10.22945 -0.234505,19.47948 6.735817,28.82242 2.449391,3.28313 8.316832,8.17758 9.80325,8.17758 0.370792,0 1.195098,0.265 1.83179,0.58888 6.408147,3.25985 14.737954,4.65168 20.490954,3.42385 1.833333,-0.39128 4.533333,-0.89473 6,-1.11878 1.466666,-0.22405 3.064533,-0.72255 3.550813,-1.10779 0.631367,-0.50018 1.033767,-0.45832 1.407507,0.1464 0.37654,0.60925 0.625313,0.45695 0.886773,-0.54288 0.218107,-0.83404 0.905747,-1.38968 1.719813,-1.38968 0.74602,0 1.5423,-0.30079 1.769514,-0.66842 0.227206,-0.36764 1.741683,-1.27366 3.365503,-2.0134 2.74818,-1.25194 7.1655,-4.69634 12.00064,-9.35748 1.11864,-1.07839 2.2286,-1.9607 2.46658,-1.9607 0.23797,0 1.76623,-0.9 3.39612,-2 1.62989,-1.1 3.17739,-2 3.43889,-2 0.65765,0 8.30601,-6.15058 10.28072,-8.26744 0.88892,-0.95291 1.85498,-1.73256 2.14681,-1.73256 0.83736,0 10.57032,-6.75271 10.57032,-7.33366 0,-0.28699 0.77592,-0.71654 1.72426,-0.95456 0.94834,-0.23802 3.12334,-1.72774 4.83333,-3.3105 1.70999,-1.58275 5.05907,-4.18634 7.44241,-5.78575 2.38333,-1.59941 6.79093,-4.79221 9.79466,-7.09511 3.00374,-2.3029 5.61328,-4.18709 5.79899,-4.18709 0.18571,0 1.17811,-0.79187 2.20533,-1.75972 1.02723,-0.96785 3.50122,-2.81451 5.49778,-4.10371 4.67155,-3.01646 9.33857,-6.45101 11.06002,-8.13928 0.74622,-0.73184 1.61104,-1.33062 1.9218,-1.33062 0.31076,0 1.05021,-0.54238 1.64322,-1.20528 1.51412,-1.69257 9.75817,-7.46139 10.66286,-7.46139 1.37222,0 0.771,1.90318 -0.75133,2.37835 -1.46184,0.4563 -3.10174,1.6842 -9.07811,6.79738 -1.60128,1.37002 -4.00337,3.24094 -5.33796,4.1576 -4.38072,3.00892 -7.74139,5.64434 -8.28372,6.49606 -0.29322,0.4605 -1.0722,0.83728 -1.73107,0.83728 -0.65887,0 -2.25421,0.975 -3.5452,2.16666 -3.79651,3.50442 -6.05164,5.30611 -8.35727,6.67688 C 170.975,296.2187 170,297.06264 170,297.38563 c 0,0.323 -1.24068,1.26837 -2.75707,2.10082 -4.58004,2.51431 -5.23185,2.93739 -6.81089,4.42082 -0.83489,0.78434 -1.85663,1.42606 -2.27054,1.42606 -0.41391,0 -1.14457,0.54403 -1.6237,1.20895 -1.32474,1.83845 -8.46935,7.45772 -9.48211,7.45772 -0.49084,0 -1.30187,0.49335 -1.8023,1.09632 -0.50042,0.60298 -3.22768,2.5868 -6.06056,4.4085 -2.83288,1.8217 -5.3094,3.80335 -5.50338,4.40368 -0.19398,0.60033 -1.17846,1.60808 -2.18774,2.23945 -1.00927,0.63138 -3.7035,2.33408 -5.98717,3.7838 -2.28367,1.44971 -4.75867,2.82835 -5.5,3.06364 -0.74133,0.23528 -1.34787,0.66377 -1.34787,0.95218 0,0.28842 -0.71752,1.29862 -1.59449,2.24488 -1.09917,1.18602 -2.03109,1.6063 -3,1.35292 -0.84981,-0.22222 -1.40551,-0.0529 -1.40551,0.42816 0,1.3305 -3.77886,4.66991 -6.8086,6.01682 C 101.04335,346.13079 94,354.51225 94,358.10124 c 0,0.61654 -0.225,1.22098 -0.5,1.34321 -1.458107,0.64804 -3.551007,6.87258 -4.08622,12.15293 -0.6379,6.29341 0.21666,16.75509 1.497547,18.33328 0.41544,0.51187 1.205393,1.89853 1.755453,3.08147 1.856847,3.99325 8.56886,11.44685 11.51742,12.78994 0.81536,0.3714 2.83247,1.35476 4.48247,2.18524 2.56776,1.29242 4.38399,1.55996 12.60577,1.85685 8.66399,0.31285 9.69045,0.23105 10.46951,-0.83437 0.56344,-0.77056 1.3653,-1.05008 2.30634,-0.804 0.92217,0.24116 3.02808,-0.44942 5.83752,-1.91427 5.00391,-2.60904 5.75507,-2.77851 4.85416,-1.09517 -1.65851,3.09897 -15.34358,7.01483 -20.22958,5.78852 -2.20516,-0.55346 -3.55573,1.0619 -2.5145,3.00746 1.08957,2.03588 0.64353,3.43537 -0.82922,2.60177 z M 42.666667,306.56332 c 0,-0.38023 1.06767,-2.94122 2.3726,-5.6911 2.281781,-4.80839 9.53733,-13.53889 11.251608,-13.53889 0.3924,0 1.56291,-0.9 2.601134,-2 1.038224,-1.1 2.162249,-2 2.497835,-2 0.335586,0 0.610156,-0.3 0.610156,-0.66666 0,-0.36667 -1.275,-0.66841 -2.833333,-0.67053 -4.091384,-0.005 -10.084518,-1.08624 -12.988221,-2.342 -4.789318,-2.07123 -6.845113,-3.20021 -6.845113,-3.75912 0,-0.30893 -0.406193,-0.56169 -0.902651,-0.56169 -0.496459,0 -1.711915,-0.75 -2.701015,-1.66666 -2.293404,-2.12546 -4.76376,-2.203 -5.309476,-0.16667 -0.815797,3.04413 -0.403397,14.78006 0.579809,16.5 0.524014,0.91667 0.963383,2.67316 0.976377,3.90332 0.02766,2.61884 2.8063,7.13451 7.516245,12.21491 1.702979,1.83693 3.174045,2.04322 3.174045,0.44509 z m -8.725876,-85.72999 c 5.310135,-5.0913 13.77383,-10.16666 16.95395,-10.16666 2.163886,0 1.706785,-1.35729 -1.036823,-3.07868 -3.071143,-1.9269 -9.191251,-7.88138 -9.191251,-8.94252 0,-0.35501 -0.3,-0.64547 -0.666667,-0.64547 -0.366667,0 -0.666667,-0.44746 -0.666667,-0.99435 0,-0.5469 -0.6,-1.36906 -1.333333,-1.82703 -0.733333,-0.45797 -1.333333,-1.07107 -1.333333,-1.36244 0,-0.29137 -0.47731,-1.25823 -1.060689,-2.14857 -1.009133,-1.54014 -1.139927,-1.5669 -2.690929,-0.55064 -2.455035,1.6086 -4.889436,7.46708 -6.081369,14.63506 -0.911397,5.48091 -0.942624,7.14985 -0.215112,11.4965 0.468083,2.79664 0.988099,5.3098 1.155591,5.5848 0.781293,1.28278 3.745406,0.32144 6.166632,-2 z M 57.666667,142.3212 c 5.477966,-1.59443 6.739548,-1.7176 14.5,-1.41567 6.868353,0.26722 8.5,0.15736 8.5,-0.57236 0,-0.49668 -0.67634,-1.44984 -1.502974,-2.11812 -0.826633,-0.66828 -1.87446,-1.96505 -2.328493,-2.88172 -1.211007,-2.44494 -2.359653,-4.13486 -3.60296,-5.30077 -1.37512,-1.28953 -3.678967,-8.05411 -4.2761,-12.55551 -0.523353,-3.9452 -1.48056,-4.59012 -4.60923,-3.10548 -2.914384,1.38297 -9.013577,7.1246 -9.013577,8.48516 0,0.59236 -0.411956,1.31692 -0.915458,1.61014 -1.519116,0.88468 -4.636408,7.64507 -5.164346,11.1998 -0.272282,1.83333 -0.699731,4.15332 -0.949886,5.15554 -0.250156,1.00222 -0.26708,2.31148 -0.03761,2.90947 0.464994,1.21175 0.313176,1.23453 9.400634,-1.41048 z M 182.40851,411.70841 c -1.05866,-0.46748 -1.63295,-1.03035 -1.27622,-1.25083 0.92811,-0.5736 4.39777,0.46594 4.71316,1.4121 0.33306,0.99919 -0.94474,0.93923 -3.43694,-0.16127 z M 326.76667,408.7 c 0.28647,-0.85943 1.20087,-1.0138 1.28333,-0.21667 0.0275,0.26584 -0.31,0.60334 -0.75,0.75 C 326.86,409.38 326.62,409.14 326.76667,408.7 Z M 172,361.42042 c 0,-0.68544 1.14643,-2.71044 2.54762,-4.5 1.40119,-1.78957 2.95916,-4.30375 3.46215,-5.58709 0.50299,-1.28333 1.121,-2.48333 1.37336,-2.66666 0.85561,-0.62159 6.61687,-9.34204 6.61687,-10.01552 0,-0.97431 1.36575,-3.26521 3.83333,-6.43002 C 191.025,330.69276 192,329.14925 192,328.79111 c 0,-0.35814 0.74482,-1.35765 1.65515,-2.22114 0.91033,-0.86348 1.66033,-2.04354 1.66666,-2.62234 0.012,-1.09453 3.92716,-7.44728 4.82962,-7.83652 0.28338,-0.12222 0.51524,-0.79722 0.51524,-1.5 0,-0.70278 0.2636,-1.27778 0.58578,-1.27778 0.32218,0 0.95858,-0.9 1.41422,-2 0.45563,-1.1 1.20453,-2 1.66421,-2 0.45968,0 1.00855,-0.86384 1.21971,-1.91964 0.21116,-1.0558 0.84866,-2.38438 1.41667,-2.95238 0.56801,-0.568 1.03941,-1.42917 1.04757,-1.91369 0.0225,-1.33851 2.48794,-4.26707 3.08751,-3.6675 0.28977,0.28977 -0.28971,1.97951 -1.28774,3.75496 -0.99803,1.77545 -1.8146,3.67437 -1.8146,4.21983 0,0.54546 -0.75,1.48316 -1.66667,2.08378 -0.91666,0.60063 -1.66666,1.58182 -1.66666,2.18042 0,0.5986 -0.76527,2.09168 -1.7006,3.31796 -0.93532,1.22628 -1.52364,2.2296 -1.30736,2.2296 0.21628,0 -0.169,0.60348 -0.85617,1.34107 -0.68717,0.73759 -2.21861,3.26985 -3.4032,5.62724 -1.18459,2.35739 -3.10905,5.55133 -4.27657,7.09763 -3.26449,4.32361 -4.35424,6.16172 -4.40738,7.43406 -0.0268,0.64166 -0.31615,1.16666 -0.643,1.16666 -0.32686,0 -1.07443,1.2 -1.66127,2.66667 -0.58685,1.46667 -1.34763,2.66667 -1.69064,2.66667 -0.34301,0 -1.40127,1.64374 -2.35169,3.65276 -0.95042,2.00902 -2.27992,4.18402 -2.95445,4.83334 -0.67453,0.64931 -1.41146,1.95394 -1.63762,2.89919 -0.22617,0.94524 -1.16845,2.5357 -2.09397,3.53435 -0.92551,0.99864 -1.68275,2.10026 -1.68275,2.44804 0,0.34777 -0.45,0.63232 -1,0.63232 -0.55,0 -1,-0.56082 -1,-1.24625 z m 39.33333,-63.98376 c 0,-0.30984 0.6,-1.10633 1.33334,-1.76999 C 213.4,295.00301 214,294.03881 214,293.524 c 0,-0.51481 0.3,-0.75061 0.66667,-0.524 1.06191,0.6563 0.77707,2.22293 -0.66667,3.66667 -1.38049,1.38048 -2.66667,1.75186 -2.66667,0.76999 z m 4,-6.35503 c 0,-1.41179 1.69434,-3.67935 2.24907,-3.00996 0.11927,0.14391 -0.0465,1.23666 -0.3685,2.42833 -0.6809,2.52031 -1.88057,2.89135 -1.88057,0.58163 z m 3.4011,-5.91496 c 0.42973,-0.825 1.79028,-2.8902 3.02345,-4.58932 1.23317,-1.69912 2.24212,-3.58667 2.24212,-4.19454 0,-0.60788 0.56189,-1.70835 1.24865,-2.4455 1.13844,-1.22196 1.28696,-1.24042 1.68274,-0.20904 0.24451,0.63718 -0.01,1.62156 -0.58198,2.25397 -0.55884,0.61751 -1.01608,1.47413 -1.01608,1.90359 0,0.42946 -0.29428,0.78084 -0.65396,0.78084 -0.35968,0 -0.85857,0.8152 -1.10864,1.81157 -0.42787,1.70476 -4.16752,6.18843 -5.16153,6.18843 -0.25086,0 -0.10451,-0.675 0.32523,-1.5 z m 246.5989,0.16666 c 0,-0.73333 0.24683,-1.33333 0.5485,-1.33333 1.0769,0 3.35208,-5.75986 4.4635,-11.29979 1.2244,-6.10318 1.0158,-11.05438 -0.72471,-17.20021 -0.90739,-3.20405 -1.15697,-3.5 -2.95165,-3.5 -2.32223,0 -2.21232,-0.55245 1.1151,-5.60488 1.21876,-1.85059 2.21593,-3.75851 2.21593,-4.23981 0,-0.4813 0.56032,-1.98814 1.24515,-3.34854 2.79139,-5.54496 1.95314,-18.51664 -1.6892,-26.1401 C 467.82983,209.05389 461.27136,202 459.63844,202 c -0.44895,0 -0.95973,-0.54863 -1.13508,-1.21917 -0.18081,-0.69138 -2.19697,-2.12498 -4.65731,-3.31158 -7.35936,-3.54934 -20.8297,-4.0921 -30.97254,-1.24796 -1.90291,0.53359 -3.62066,0.80934 -3.81723,0.61277 -0.19657,-0.19657 -0.73964,-0.0533 -1.20683,0.31841 -0.4672,0.37168 -3.24945,1.19437 -6.18278,1.82818 -2.93334,0.63382 -6.23334,1.54099 -7.33334,2.01594 -1.1,0.47494 -5.3,1.65298 -9.33333,2.61786 -4.03333,0.96488 -8.83333,2.16513 -10.66667,2.66722 C 382.5,206.78376 377.4,207.86063 373,208.67471 c -14.30631,2.64693 -29.25323,6.2171 -30.66667,7.32493 -0.36666,0.28739 -2.46666,0.88863 -4.66666,1.33609 -2.2,0.44746 -4.45,1.04962 -5,1.33814 -1.71225,0.8982 -8.66667,1.54754 -8.66667,0.80922 0,-0.3688 0.975,-0.82298 2.16667,-1.00928 1.19166,-0.18631 7.26666,-1.90152 13.5,-3.81158 C 345.9,212.75218 352.35,210.94503 354,210.64634 c 8.56826,-1.55104 26.39689,-5.47261 31.66667,-6.96538 3.3,-0.93479 8.85,-2.33282 12.33333,-3.10674 3.48333,-0.77391 7.23333,-1.7903 8.33333,-2.25864 2.41974,-1.03022 22.26336,-5.72279 26,-6.14841 1.46667,-0.16705 2.95167,-0.57301 3.3,-0.90212 0.34834,-0.32911 1.06676,-0.59838 1.59648,-0.59838 0.9457,0 7.59226,-6.45066 12.01636,-11.66218 4.658,-5.48702 6.7449,-12.03906 6.75011,-21.19266 0.003,-5.67235 -0.25995,-7.20523 -2.02125,-11.77243 -1.11373,-2.88801 -2.46373,-5.61506 -3,-6.06012 C 450.43877,139.53421 450,138.82156 450,138.3956 c 0,-1.01163 -6.5185,-7.25195 -8.66667,-8.29682 -0.91666,-0.44587 -2.86666,-1.54556 -4.33333,-2.44376 -1.46667,-0.89819 -3.21139,-1.63802 -3.87716,-1.64405 -0.66577,-0.006 -1.86577,-0.3639 -2.66667,-0.79528 -1.76398,-0.95008 -13.58554,-0.78663 -17.45617,0.24138 -3.39437,0.90151 -9.4161,3.59816 -9.94468,4.45342 -0.22239,0.35983 -1.89163,1.14823 -3.70943,1.752 -1.8178,0.60378 -4.22954,1.96135 -5.35943,3.01682 -1.12989,1.05548 -2.63907,2.10464 -3.35374,2.33146 -0.71466,0.22683 -1.29939,0.8422 -1.29939,1.36749 0,0.52529 -0.30308,0.95507 -0.6735,0.95507 -0.57251,0 -6.07318,3.6091 -8.29427,5.44203 -1.12279,0.92657 -5.8438,3.98363 -8.23888,5.33503 -2.50799,1.41511 -3.61409,2.25719 -5.76592,4.38961 -0.83251,0.825 -1.84257,1.5 -2.24457,1.5 -0.402,0 -1.2676,0.54151 -1.92355,1.20337 -2.04843,2.06686 -6.68323,5.4633 -7.45524,5.4633 -0.40557,0 -0.7374,0.2939 -0.7374,0.65312 0,0.83652 -5.03183,3.42616 -5.58412,2.87387 -1.04445,-1.04445 -0.072,-2.00488 3.90879,-3.86033 2.35998,-1.1 4.30238,-2.375 4.31644,-2.83333 0.0141,-0.45833 0.2686,-0.83333 0.56566,-0.83333 0.29706,0 1.53076,-0.975 2.74156,-2.16667 1.2108,-1.19167 3.03246,-2.61667 4.04815,-3.16667 3.29695,-1.78531 13.55736,-8.83684 18.1346,-12.46311 2.45543,-1.94529 4.75543,-3.53689 5.11111,-3.53689 0.35568,0 0.7467,-0.225 0.86892,-0.5 0.37586,-0.84568 7.76465,-6.15243 9.46794,-6.80002 0.88344,-0.33588 2.91456,-2.28739 4.5136,-4.33668 2.65512,-3.40274 2.94025,-3.59458 3.28654,-2.21131 0.33111,1.32257 0.7434,1.49081 3.25078,1.32646 1.57936,-0.10353 3.48918,-0.51876 4.24404,-0.92275 2.60178,-1.39242 13.46477,-1.14427 21.62599,0.49403 2.13294,0.42817 2.16667,0.39647 2.16667,-2.03581 0,-3.16412 -3.0962,-11.926 -4.73999,-13.4136 -0.69301,-0.62717 -1.26035,-1.4688 -1.26076,-1.87031 -0.001,-1.48883 -7.79243,-8.26306 -11.43334,-9.941347 -3.82801,-1.76452 -4.91049,-1.492606 -5.79372,1.455354 -0.42471,1.41754 -0.78543,3.892543 -0.80161,5.500003 -0.0273,2.71578 -1.15362,8.05286 -2.02364,9.58932 -0.20762,0.36666 -0.78005,1.94596 -1.27207,3.50954 -0.90637,2.88034 -2.35677,4.69745 -3.13127,3.92295 -0.35986,-0.35986 0.70898,-3.02252 3.15293,-7.85444 1.26763,-2.50623 2.70235,-11.94181 2.72355,-17.911707 0.0194,-5.468026 -0.22371,-6.948073 -1.6493,-10.039913 -0.91965,-1.99454 -2.03069,-4.601433 -2.46898,-5.7931 -0.4383,-1.191667 -1.0605,-2.166667 -1.38268,-2.166667 -0.32218,0 -0.58579,-0.42032 -0.58579,-0.93404 0,-1.163226 -7.49365,-7.732626 -8.82053,-7.732626 -0.53505,0 -1.50606,-0.58922 -2.15779,-1.309374 -0.65173,-0.720156 -2.57323,-1.80189 -4.26999,-2.403852 -1.69676,-0.601962 -3.68502,-1.334925 -4.41836,-1.628806 -3.45988,-1.38654 -7.83185,-2.101987 -10.45572,-1.71102 -7.72384,1.150876 -8.71565,1.203014 -8.23985,0.433157 0.26095,-0.422221 1.01643,-0.595657 1.67885,-0.385413 0.66242,0.210244 2.51217,-0.07319 4.11056,-0.629846 1.59839,-0.55666 3.68116,-1.016474 4.62838,-1.021811 0.94723,-0.0053 1.90457,-0.192045 2.12744,-0.414909 0.46221,-0.462214 -0.63213,-2.567322 -2.34966,-4.519888 -0.64166,-0.729476 -1.16666,-1.719752 -1.16666,-2.200612 C 376.66667,52.393431 376.36667,52 376,52 c -0.36667,0 -0.66667,-0.497741 -0.66667,-1.106091 0,-0.761292 0.83128,-0.258064 2.66667,1.614314 1.46667,1.496224 2.66667,3.193964 2.66667,3.772758 0,0.578794 0.2625,1.052352 0.58333,1.052352 0.32083,0 0.75003,0.833503 0.95378,1.852229 0.33045,1.65224 0.81843,1.951615 4.5196,2.772716 2.28204,0.506269 6.12272,1.997766 8.53485,3.314439 4.62501,2.524583 13.79216,10.772476 14.50504,13.05051 0.23123,0.738893 1.17306,2.99344 2.09296,5.010106 0.91991,2.016667 1.73662,4.716667 1.8149,6 0.0783,1.283334 0.18432,2.678207 0.23561,3.099714 0.0513,0.421506 1.59326,1.305773 3.42659,1.965026 1.83334,0.65926 3.33334,1.406867 3.33334,1.661354 0,0.25448 0.78123,0.658773 1.73607,0.89842 1.98249,0.497573 11.3444,9.835783 11.99581,11.965443 0.23722,0.77552 0.76606,1.8269 1.1752,2.3364 1.0047,1.25111 2.36062,6.54597 2.39683,9.35964 0.0547,4.24941 1.372,6.57152 4.58464,8.08163 4.30793,2.02497 10.35506,8.71035 13.18261,14.57397 2.27907,4.72624 2.39907,5.33638 2.75336,14 0.20374,4.98212 0.5671,9.2084 0.80746,9.39174 0.71246,0.54341 4.31729,6.14846 5.57388,8.66666 0.64038,1.28334 1.40941,2.78334 1.70895,3.33334 1.71653,3.15179 2.06411,4.32086 2.70253,9.08989 0.58994,4.40674 0.50952,6.15456 -0.50391,10.95329 -1.10019,5.20952 -1.11671,5.95435 -0.18854,8.5 0.55952,1.53458 1.34975,2.79015 1.75607,2.79015 0.91003,0 2.9857,4.21741 2.9857,6.06645 0,0.745 0.3193,1.95116 0.70956,2.68036 0.39026,0.7292 0.98902,3.06114 1.33059,5.18208 0.93561,5.8096 -0.18475,12.83747 -3.00737,18.86481 -1.30136,2.77888 -2.36611,5.62251 -2.36611,6.31917 0,0.69668 0.65765,3.05628 1.46145,5.24357 2.90794,7.91303 1.65045,21.97593 -2.63578,29.47689 -1.70482,2.98346 -3.49234,3.75122 -3.49234,1.5 z m 0.35109,-85.36766 c 1.33425,-2.58016 2.1518,-12.90951 1.07447,-13.57534 C 466.3415,186.13237 466,185.22635 466,184.37694 c 0,-1.41453 -2.24321,-6.78817 -4.19661,-10.05303 -3.46588,-5.79275 -3.95395,-6.36222 -4.82982,-5.6353 -0.48833,0.40527 -1.09339,1.67262 -1.34459,2.81632 -0.63481,2.89028 -4.79699,8.78779 -10.29803,14.59159 -2.55623,2.69691 -4.57346,5.35348 -4.48274,5.90348 0.11435,0.69331 1.28746,1.11046 3.82503,1.36016 4.98945,0.49098 13.55346,3.40735 14.52491,4.94628 0.56369,0.89299 4.27099,3.64268 4.9514,3.67244 0.26558,0.0116 0.95628,-0.89433 1.53487,-2.01321 z m -207.25917,76.96464 c -0.64822,-2.78623 -1.01614,-5.22831 -0.8176,-5.42684 0.39109,-0.3911 0.7693,0.55038 1.27073,3.1632 0.17591,0.91666 0.71443,2.63748 1.19671,3.82402 0.591,1.45402 0.65711,2.37711 0.2028,2.83142 -0.45431,0.45431 -1.0583,-0.97748 -1.85264,-4.3918 z m 15.74142,-2.7438 C 273.16582,273.82906 273.0439,272 274.02092,272 c 0.68768,0 1.69807,1.86825 1.22811,2.27081 -0.13697,0.11733 -0.62403,0.0794 -1.08236,-0.0843 z m 174.96888,-1.20746 c -0.65879,-0.90514 -1.61664,-1.64572 -2.12856,-1.64572 -0.51193,0 -1.92292,-0.5668 -3.13555,-1.25956 -1.21263,-0.69277 -3.32162,-1.45484 -4.68665,-1.69348 -1.36503,-0.23865 -2.7421,-0.8989 -3.06014,-1.46721 -0.58156,-1.03918 -1.50925,-1.2236 -16.12465,-3.20551 -3.85,-0.52207 -10.20482,-1.55552 -14.12183,-2.29654 -3.917,-0.74102 -9.467,-1.5316 -12.33333,-1.75685 -2.86633,-0.22525 -6.45181,-0.85115 -7.96775,-1.39089 -1.51593,-0.53974 -3.01593,-0.91929 -3.33333,-0.84344 -0.3174,0.0758 -1.62709,-0.0401 -2.91043,-0.2576 -1.28333,-0.21752 -5.18333,-0.72476 -8.66666,-1.12721 -42.05705,-4.85906 -44.54524,-5.22914 -45.35713,-6.74617 -0.91459,-1.70892 0.25348,-2.21064 2.50421,-1.07563 1.0191,0.51392 3.50292,0.98017 5.51958,1.03611 2.01667,0.0559 5.31667,0.383 7.33334,0.72678 5.96503,1.01688 13.0373,1.9356 23.66666,3.07441 11.60448,1.24328 14.47278,1.6062 30.66667,3.88018 14.26924,2.00372 18.56178,2.72037 22.26183,3.71669 1.52292,0.41008 3.03014,0.58416 3.3494,0.38686 0.31925,-0.19732 1.65023,0.0882 2.95772,0.63454 2.99818,1.25271 19.73505,1.7163 21.15898,0.58607 0.5163,-0.40982 2.58874,-1.27905 4.6054,-1.93164 2.01667,-0.65258 3.81667,-1.40042 4,-1.66185 0.18334,-0.26144 1.36867,-1.00611 2.63407,-1.65482 1.26541,-0.64871 2.71183,-1.59057 3.21429,-2.09302 1.17247,-1.17247 2.81831,-1.17876 2.81831,-0.0108 0,0.92688 -7.06053,5.76389 -8.4135,5.76389 -0.41466,0 -2.44981,0.75 -4.52255,1.66666 -2.07275,0.9167 -4.45008,1.6667 -5.28296,1.6667 -1.46993,0 -3.11432,1.10064 -3.11432,2.08451 0,0.52886 3.82932,2.58216 4.81564,2.58216 1.22055,0 6.51769,4.08969 6.51769,5.03202 0,1.49363 -1.53411,1.10821 -2.86445,-0.71964 z M 227.33995,272 c 0,-0.55 0.73773,-1.9 1.63938,-3 1.01279,-1.23557 1.63938,-1.61779 1.63938,-1 0,0.55 -0.73772,1.9 -1.63938,3 -1.01278,1.23557 -1.63938,1.61779 -1.63938,1 z m 39.73918,-7.62219 c -2.09054,-2.74082 -2.19456,-3.33156 -0.41936,-2.3815 1.4422,0.77184 3.75426,4.67036 2.76981,4.67036 -0.33257,0 -1.39027,-1.02999 -2.35045,-2.28886 z M 287,263.18957 c -1.87738,-1.08401 -3.22637,-2.51876 -2.78407,-2.96106 0.54304,-0.54304 5.33092,1.95269 5.63665,2.93816 0.32082,1.03411 -1.08179,1.04537 -2.85258,0.0229 z m -23.52295,-3.65442 c -1.24464,-0.86759 -1.83908,-0.91755 -3.25282,-0.27341 -0.95142,0.4335 -1.88812,0.62993 -2.08154,0.43651 -0.43257,-0.43258 3.01177,-3.69825 3.90058,-3.69825 2.34156,0 10.6234,-8.51127 10.6234,-10.91769 0,-1.5767 1.79324,-5.28952 2.22071,-4.59786 0.53379,0.86368 8.77529,2.2048 15.44595,2.51349 2.93334,0.13574 7.28334,0.51817 9.66667,0.84985 2.38333,0.33168 8.62039,1.16888 13.86011,1.86044 8.84552,1.16748 9.51295,1.35398 9.33334,2.60792 -0.14041,0.9802 -0.65045,1.3215 -1.86012,1.2447 -3.86848,-0.24562 -14.83299,-1.7555 -21.39476,-2.94617 -3.88379,-0.70474 -7.98456,-1.28135 -9.11282,-1.28135 -1.12827,0 -3.80062,-0.42921 -5.93857,-0.95381 -2.13795,-0.5246 -5.08718,-1.11937 -6.55385,-1.32172 l -2.66666,-0.3679 -1.84231,3.82171 c -1.01327,2.10195 -1.83827,4.34672 -1.83333,4.98839 0.007,0.85385 -0.52729,1.16667 -1.99103,1.16667 -1.33333,0 -2,0.33333 -2,1 0,0.55 -0.43945,1 -0.97655,1 -1.37536,0 -2.54598,2.48876 -2.06744,4.39542 0.46806,1.86486 0.5021,1.85397 -1.47896,0.47306 z m 15.64406,-1.50728 c -0.87515,-0.88526 -0.99345,-1.36141 -0.42546,-1.71245 0.43272,-0.26743 1.04862,-0.0728 1.36868,0.4325 0.32006,0.50531 0.58652,0.65701 0.59213,0.33712 0.005,-0.3199 0.45691,-0.21091 1.00287,0.2422 1.06956,0.88765 0.76025,2.03096 -0.53201,1.96647 -0.43669,-0.0218 -1.33949,-0.59142 -2.00621,-1.26584 z m 183.91408,-4.6376 c -0.21465,-0.34731 -0.10611,-0.8071 0.2412,-1.02174 0.34732,-0.21466 0.8071,-0.10612 1.02175,0.2412 0.21465,0.34731 0.10611,0.8071 -0.2412,1.02174 -0.34731,0.21466 -0.8071,0.10612 -1.02175,-0.2412 z M 274.33771,234.5 c -0.2854,-2.29167 -0.57764,-4.91703 -0.64942,-5.83413 -0.0718,-0.91711 -0.48101,-2.32239 -0.9094,-3.12284 C 272.3505,224.74257 272,223.74489 272,223.32597 c 0,-1.24816 -8.12155,-8.97638 -11,-10.46728 -1.46667,-0.75966 -4.47175,-1.88996 -6.67797,-2.51178 -3.7056,-1.04444 -4.32262,-1.04993 -8.09623,-0.0721 -2.24671,0.58219 -4.82617,1.05851 -5.73213,1.05851 -0.90595,0 -2.40997,0.6 -3.34225,1.33334 C 236.21914,213.4 235.16512,214 234.80916,214 c -0.35595,0 -2.05683,1.65 -3.77973,3.66667 -2.95926,3.46385 -4.36276,4.44541 -4.36276,3.05115 0,-0.33854 0.75,-1.50685 1.66666,-2.59624 1.745,-2.07381 2.17143,-4.3976 0.94597,-5.15497 -0.39639,-0.24498 -1.22139,-1.26614 -1.83333,-2.26925 -0.61195,-1.00311 -2.247,-3.14537 -3.63346,-4.76059 -3.70138,-4.31214 -6.47918,-8.03996 -6.47918,-8.6951 0,-0.31626 0.42173,-0.575 0.93718,-0.575 1.03121,0 5.06282,5.68596 5.06282,7.14032 0,0.50144 1.125,2.04999 2.5,3.44122 1.375,1.39122 3.29375,3.55451 4.26388,4.8073 l 1.76388,2.27782 1.61242,-1.5 c 0.88684,-0.825 1.922,-1.5 2.30036,-1.5 0.37837,0 1.6427,-0.47629 2.80962,-1.05842 1.9613,-0.97844 2.08891,-1.24298 1.68823,-3.5 -0.23839,-1.34287 -0.69705,-2.72658 -1.01925,-3.07491 -0.32219,-0.34833 -0.5858,-2.01333 -0.5858,-3.7 0,-1.68667 -0.24784,-3.35167 -0.55075,-3.7 -0.67755,-0.77915 -1.69228,-4.39721 -3.07575,-10.96667 -0.57912,-2.75 -1.52874,-6.65 -2.11026,-8.66666 -1.46268,-5.07254 -2.2355,-8.48343 -2.71886,-12 -0.2268,-1.65 -0.78455,-3.6 -1.23944,-4.33334 -0.4549,-0.73333 -1.026,-2.74511 -1.26912,-4.47062 -0.24312,-1.72552 -0.85834,-3.97552 -1.36714,-5 -0.5088,-1.02449 -1.27353,-3.36271 -1.6994,-5.19604 -0.42587,-1.83334 -1.21681,-4.98334 -1.75765,-7 -1.85089,-6.90152 -2.70299,-10.33738 -3.88539,-15.66667 -0.65082,-2.93333 -1.59046,-6.27867 -2.0881,-7.43409 C 216.40716,114.4105 216,113.05362 216,112.55063 c 0,-0.503 -0.77581,-3.90766 -1.72402,-7.56592 C 213.32777,101.32645 212.12984,96.383333 211.61391,94 211.09798,91.616667 210.09163,88.166667 209.37759,86.333333 208.66353,84.5 207.58365,80.75 206.97785,78 c -0.6058,-2.75 -1.51714,-6.5 -2.0252,-8.333333 -0.50806,-1.833334 -1.20761,-4.983334 -1.55454,-7 -0.7892,-4.587392 -1.62582,-6.805772 -2.99532,-7.942362 -0.5882,-0.48816 -1.06946,-1.313493 -1.06946,-1.834072 0,-0.52058 -0.2961,-1.308846 -0.658,-1.751704 -2.33554,-2.857984 -5.342,-7.253962 -5.342,-7.810964 0,-1.939988 2.66202,0.251039 4.66436,3.839102 C 198.86733,48.725 199.77292,50 200.01011,50 c 0.69544,0 1.77086,-2.532189 4.37546,-10.302457 2.29534,-6.847622 6.93561,-15.40066 7.47592,-13.779737 0.13373,0.401183 -0.3804,1.605109 -1.14251,2.675389 -0.76211,1.070281 -1.38565,2.367316 -1.38565,2.882299 0,0.514983 -0.44046,1.518672 -0.9788,2.230419 -0.53833,0.711748 -0.98833,1.93245 -1,2.712671 -0.0117,0.780221 -0.48111,2.519315 -1.04323,3.864652 -0.56212,1.345337 -0.95957,2.806975 -0.88321,3.248083 0.0763,0.441108 -0.21357,2.03345 -0.64426,3.538537 -1.02109,3.568238 -0.4569,11.05612 1.32004,17.519576 0.7677,2.792481 1.65462,6.277235 1.97091,7.743901 0.3163,1.466667 1.19824,5.216667 1.95988,8.333334 0.76163,3.116666 1.64157,6.716666 1.95542,8 0.31385,1.283333 1.07099,3.983333 1.68255,6 0.61156,2.016666 1.35956,4.866666 1.66224,6.333333 1.21016,5.86405 2.8527,12.12297 3.76397,14.34266 0.52897,1.28846 1.37572,4.13846 1.88167,6.33333 0.50596,2.19487 1.36596,5.79068 1.9111,7.99068 0.54516,2.2 1.33598,5.8 1.75738,8 0.42142,2.2 1.21936,5.35 1.7732,7 1.79286,5.34118 4.88155,17.61676 4.89655,19.46065 0.008,0.98669 0.27174,1.95291 0.58602,2.14715 0.31429,0.19424 0.92611,2.23695 1.35961,4.53935 0.4335,2.3024 1.10222,5.08618 1.48603,6.18618 0.67178,1.92529 2.94677,11.86699 3.66134,16 0.19018,1.1 0.6049,2.6 0.92159,3.33333 0.57116,1.32256 0.96485,3.22174 1.86565,9 l 0.46769,3 4.97276,-0.22992 c 6.00692,-0.27775 6.64318,-0.887 6.6727,-6.38941 0.0117,-2.17397 0.30341,-4.87397 0.64832,-6 0.34492,-1.12603 0.98734,-5.04733 1.4276,-8.714 0.44027,-3.66667 1.08396,-7.41667 1.43044,-8.33333 0.34648,-0.91667 0.76759,-4.36667 0.9358,-7.66667 0.16822,-3.3 0.57463,-6.6 0.90315,-7.33333 0.32851,-0.73334 0.75504,-3.28334 0.94783,-5.66667 0.38453,-4.75353 1.30898,-10.68127 2.39129,-15.33333 0.74079,-3.18413 0.79067,-3.53515 2.4159,-17 0.57534,-4.76667 1.31791,-9.1876 1.65014,-9.82429 0.33224,-0.63669 0.60117,-2.13669 0.59763,-3.33333 -0.0111,-3.76587 1.44146,-15.457403 2.07072,-16.66667 0.33131,-0.636693 0.60238,-2.497573 0.60238,-4.1353 0,-1.63772 0.2962,-3.666793 0.65822,-4.509047 0.36202,-0.842253 1.25886,-6.331366 1.99299,-12.198033 0.73412,-5.866667 1.68802,-12.766667 2.11978,-15.333333 C 274.53608,57.1 274.86305,54.1 274.83093,53 274.68905,48.140963 273.40107,39.428427 272.4411,36.834051 270.80213,32.404589 266.10743,24.771075 264.48981,23.905353 263.68435,23.47428 262.47286,22.419228 261.79761,21.560792 261.12237,20.702357 260.00381,20 259.31193,20 c -0.69188,0 -1.94511,-0.715223 -2.78495,-1.589384 -0.83984,-0.874161 -2.72698,-1.963259 -4.19365,-2.420215 -1.46666,-0.456958 -2.96666,-1.053891 -3.33333,-1.32652 -0.88676,-0.659336 -5.72891,-1.286739 -10.66667,-1.382093 -4.55196,-0.0879 -15.0417,3.208884 -17.33333,5.447643 -2.25069,2.198767 -7.29523,5.925136 -8,5.909563 -0.36667,-0.0081 -0.19807,-0.380191 0.37465,-0.826863 1.96758,-1.534541 1.99874,-2.970708 0.0805,-3.712093 -2.0329,-0.785705 -8.18229,-1.914375 -11.02518,-2.023578 -2.03238,-0.07807 -9.88304,1.552599 -12.09666,2.51261 -5.49438,2.382835 -8.43817,2.922187 -4,0.732867 1.46667,-0.723496 3.95824,-2.084877 5.53682,-3.025291 2.26287,-1.34807 3.81448,-1.724515 7.33333,-1.77918 4.7367,-0.07358 11.35015,0.848623 15.86237,2.211919 2.54908,0.770161 2.88476,0.711366 5,-0.875751 6.06474,-4.550507 13.21437,-6.29053 22.7744,-5.542662 5.89624,0.461254 14.49308,3.115101 14.49308,4.474017 0,0.989576 2.95799,0.56898 5.07431,-0.721516 3.16397,-1.929328 15.40214,-3.51656 21.65187,-2.808142 2.78272,0.315427 5.78272,1.026326 6.66666,1.579775 0.88394,0.553449 2.40537,1.190952 3.38096,1.416673 0.97558,0.225721 2.78541,1.386411 4.02184,2.579312 1.23643,1.1929 3.26575,3.01874 4.5096,4.057422 1.804,1.506433 2.06934,2.010164 1.31149,2.489792 -0.52253,0.330703 -1.63197,0.605872 -2.46543,0.611486 -1.46342,0.0099 -1.47793,-0.04693 -0.42332,-1.656458 0.66426,-1.013798 0.80146,-1.666666 0.35024,-1.666666 -0.40799,0 -2.16749,-1.000724 -3.91001,-2.223832 -3.65557,-2.565927 -5.41585,-3.28675 -11.80137,-4.832611 -5.1217,-1.239903 -14.84648,-0.956477 -19.51892,0.568873 -2.09976,0.685482 -2.54754,1.158141 -2.71436,2.865184 -0.16677,1.706486 0.41157,2.67046 3.5,5.833794 2.09854,2.149438 3.69978,4.392252 3.69978,5.18219 0,0.765973 0.57439,1.890766 1.27644,2.49954 1.46303,1.268673 3.39022,7.521333 3.39022,10.9994 0,1.294698 0.3326,3.198526 0.7391,4.230728 l 0.73911,1.876734 L 277.47318,48 c 1.90071,-4.787902 2.88876,-6.631029 5.4212,-10.112889 1.52476,-2.096394 2.99729,-3.82861 3.27229,-3.849369 0.93083,-0.07026 0.50694,1.954975 -0.66667,3.185206 -2.28389,2.394074 -4.89035,7.451677 -6.4129,12.443719 -0.67099,2.2 -1.44373,4.45 -1.71721,5 -0.77039,1.549389 -1.85294,7.07376 -2.67812,13.666666 -0.91056,7.27512 -2.3768,16.8093 -3.69088,24 -0.53606,2.933334 -0.97804,6.233334 -0.98218,7.333334 -0.004,1.100003 -0.45251,3.950003 -0.9964,6.333333 -0.54388,2.38333 -1.31402,7.03333 -1.71141,10.33333 -0.39739,3.3 -1.14663,8.7 -1.66498,12 -0.51835,3.3 -1.09774,7.8 -1.28755,10 -0.1898,2.2 -0.79808,6.625 -1.35173,9.83334 -3.13503,18.16708 -4.6317,28.0606 -5.67291,37.5 -0.32357,2.93333 -0.92698,6.53333 -1.34093,8 -0.41394,1.46666 -0.98141,4.76666 -1.26104,7.33333 -0.27963,2.56667 -0.63367,5.06959 -0.78675,5.56204 -0.304,0.97789 0.24976,1.38185 4.68021,3.41416 3.82359,1.75394 6.06037,1.76211 6.51495,0.0238 0.19177,-0.73333 0.64578,-1.33333 1.00891,-1.33333 0.36733,0 0.44715,0.51759 0.17995,1.16666 -0.26417,0.64167 -0.61315,1.62242 -0.77551,2.17946 -0.37995,1.30347 5.73081,7.98721 7.30248,7.98721 0.91923,0 1.1574,0.48702 1.05957,2.16667 -0.15209,2.61104 2.05087,6.74007 3.77446,7.07452 1.47396,0.28602 7.94307,-1.13031 10.30997,-2.25724 0.91667,-0.43644 2.56667,-0.97351 3.66667,-1.19349 1.1,-0.21998 7.1,-1.48495 13.33333,-2.81103 6.23333,-1.3261 12.45012,-2.64717 13.81508,-2.93573 1.36495,-0.28856 2.63995,-0.36644 2.83333,-0.17307 0.86041,0.86042 0.19786,1.4627 -1.60906,1.4627 -1.07836,0 -2.12648,0.26832 -2.32916,0.59625 -0.20268,0.32793 -1.49538,0.75107 -2.87268,0.94031 -1.3773,0.18923 -5.35418,0.97608 -8.83751,1.74856 -3.48333,0.77248 -9.18333,1.97694 -12.66667,2.67658 -3.48333,0.69965 -7.62772,1.73802 -9.20976,2.3075 -1.58204,0.56947 -3.08204,1.00942 -3.33334,0.97767 -1.10232,-0.13929 -3.46274,0.97587 -3.52259,1.66422 -0.0361,0.41557 -0.13075,1.35558 -0.21027,2.08891 -0.0795,0.73334 -0.19995,2.00834 -0.26764,2.83334 -0.0677,0.825 -0.53032,1.5 -1.02809,1.5 -0.61038,0 -1.07397,-1.35656 -1.42393,-4.16667 z m -59.67104,-13.94413 c -2.01667,-1.11282 -4.14029,-2.44313 -4.71916,-2.95625 -0.57888,-0.51313 -1.32888,-0.93425 -1.66667,-0.93582 -0.33779,-0.001 -2.20616,-1.20983 -4.15192,-2.68501 -1.94577,-1.47517 -4.72077,-3.19465 -6.16667,-3.82106 -1.4459,-0.62641 -2.62892,-1.36816 -2.62892,-1.64833 0,-0.28017 -0.38928,-0.5094 -0.86506,-0.5094 -1.23183,0 -9.35213,-4.24003 -10.99472,-5.7409 -2.61911,-2.39315 -3.4212,-2.92577 -4.40607,-2.92577 -0.54383,0 -1.15917,-0.27567 -1.36741,-0.6126 -0.48258,-0.78085 -8.69082,-5.3874 -9.59959,-5.3874 -0.37558,0 -2.65475,-1.35 -5.06482,-3 -2.41007,-1.65 -4.63778,-3 -4.95047,-3 -0.31268,0 -1.65402,-0.825 -2.98076,-1.83333 -3.54213,-2.69207 -7.08448,-4.83333 -7.9959,-4.83333 -0.43946,0 -1.88902,-0.74068 -3.22124,-1.64595 -1.33223,-0.90527 -4.07226,-2.37567 -6.08896,-3.26755 -2.32141,-1.02663 -3.8355,-2.15336 -4.12673,-3.07096 -0.76109,-2.39799 0.0497,-2.26682 3.6682,0.59341 1.89563,1.49841 3.9792,2.72438 4.63016,2.72438 0.65096,0 1.89902,0.53291 2.77347,1.18424 0.87444,0.65133 2.4899,1.61339 3.5899,2.13791 1.1,0.52452 2.5061,1.371 3.12466,1.88107 0.61856,0.51007 1.40444,0.75448 1.74639,0.54315 0.34195,-0.21134 1.48585,0.3589 2.54201,1.2672 1.05615,0.90831 2.12632,1.65184 2.37814,1.65228 0.25182,4.5e-4 2.50182,1.40024 5,3.11064 2.49818,1.7104 7.44736,4.58266 10.99818,6.38281 3.55082,1.80014 7.18438,3.92572 8.07457,4.72351 2.02923,1.81858 3.70216,2.93344 5.68161,3.78627 0.85006,0.36624 2.52837,1.41553 3.7296,2.33174 1.20122,0.91621 2.60572,1.66697 3.1211,1.66834 0.5154,0.001 1.98708,0.66151 3.27041,1.46697 4.14031,2.5986 6.27653,3.81298 9.08798,5.16624 1.51505,0.72926 2.91134,1.73426 3.10285,2.23334 0.19152,0.49908 2.02305,1.7548 4.07008,2.79051 3.9542,2.00064 6.72434,4.37681 5.00908,4.29669 -0.51516,-0.0241 -2.58666,-0.95423 -4.60332,-2.06704 z m 62.66666,-2.42254 c 0,-0.86754 1.5241,-2.13333 2.56868,-2.13333 0.65756,0 0.47492,0.42823 -0.56868,1.33333 -1.69398,1.46919 -2,1.5916 -2,0.8 z m 5,-4.8 c 0.22662,-0.36666 0.54432,-0.66666 0.70602,-0.66666 0.16169,0 0.29398,0.3 0.29398,0.66666 0,0.36667 -0.3177,0.66667 -0.70601,0.66667 -0.38831,0 -0.5206,-0.3 -0.29399,-0.66667 z m 3.38362,-2.58531 c -0.4227,-0.68394 4.47104,-4.08135 5.87891,-4.08135 0.52678,0 1.80724,-0.9 2.84547,-2 1.03822,-1.1 2.12456,-2 2.41408,-2 0.28953,0 1.90368,-1.31974 3.587,-2.93275 1.68333,-1.61301 3.84742,-3.33801 4.80909,-3.83333 0.96167,-0.49533 2.0485,-1.25266 2.41517,-1.68296 0.36666,-0.4303 2.16666,-1.58893 4,-2.57473 1.83333,-0.9858 3.63333,-2.13557 4,-2.55506 1.27528,-1.45898 5.10622,-4.42117 5.71782,-4.42117 0.33853,0 0.61551,0.6 0.61551,1.33333 0,0.73333 -0.3959,1.33333 -0.87977,1.33333 -0.48388,0 -1.50349,0.675 -2.2658,1.5 -0.76231,0.825 -3.66641,2.95596 -6.45356,4.73547 -2.78714,1.77951 -5.06754,3.50451 -5.06754,3.83333 0,0.32883 -0.33864,0.59787 -0.75253,0.59787 -0.41389,0 -1.90633,1.04239 -3.31653,2.31641 -1.41019,1.27403 -3.32155,2.50656 -4.24746,2.73894 -0.92591,0.23239 -1.68348,0.69 -1.68348,1.01692 0,0.32692 -0.37806,0.5944 -0.84014,0.5944 -0.46208,0 -1.58708,0.675 -2.5,1.5 -1.6921,1.52913 -7.04716,5.16666 -7.60622,5.16666 -0.16956,0 -0.47106,-0.26339 -0.67002,-0.58531 z m -19.03546,-3.49145 c 0.008,-0.50778 0.60148,-1.67324 1.31851,-2.5899 0.71703,-0.91667 1.31035,-2.15844 1.31851,-2.75948 0.008,-0.60104 0.60484,-1.80104 1.32598,-2.66667 l 1.31115,-1.57385 0.0222,1.54382 c 0.0211,1.4719 -1.0314,4.0786 -1.93394,4.78951 -0.23275,0.18333 -1.08784,1.19879 -1.90019,2.25657 -0.81236,1.05778 -1.47035,1.50778 -1.4622,1 z m 6.03781,-10.31212 c 0.032,-0.77664 0.18996,-0.9346 0.40277,-0.40278 0.19258,0.48124 0.1689,1.05625 -0.0526,1.27778 -0.22152,0.22152 -0.37909,-0.17223 -0.35014,-0.875 z m -57.91457,-2.77778 c -3.18617,-4.18824 -5.94052,-7.87944 -8.13806,-10.9061 -1.28334,-1.76752 -3.77994,-5.05598 -5.548,-7.30768 -1.76807,-2.25171 -3.37332,-4.50743 -3.56721,-5.01272 -0.1939,-0.5053 -1.5223,-2.19841 -2.952,-3.76248 C 193.16975,165.61362 192,164.12549 192,163.87073 c 0,-0.25476 -1.04922,-1.60489 -2.33159,-3.0003 -1.28238,-1.3954 -2.76838,-3.45293 -3.30222,-4.57228 -0.53384,-1.11935 -1.58463,-2.59085 -2.33508,-3.26999 -0.75044,-0.67915 -1.36444,-1.59182 -1.36444,-2.02816 0,-0.43634 -0.6,-1.33634 -1.33334,-2 C 180.6,148.33634 180,147.45073 180,147.03197 c 0,-0.41876 -1.2,-1.93314 -2.66667,-3.3653 -1.46666,-1.43216 -2.66666,-2.99305 -2.66666,-3.46864 0,-0.47558 -0.26347,-0.8647 -0.58548,-0.8647 -0.32202,0 -1.74702,-1.725 -3.16667,-3.83333 -1.41965,-2.10833 -2.77791,-3.98356 -3.01835,-4.16717 -0.7017,-0.53586 -5.2295,-7.25534 -5.2295,-7.76084 0,-0.25308 -0.44718,-0.9353 -0.99372,-1.51606 -3.80603,-4.04431 -5.68082,-6.36381 -6.0281,-7.45802 -0.22076,-0.69552 -0.63559,-1.26458 -0.92186,-1.26458 -0.28627,0 -1.05087,-1.17617 -1.69912,-2.61372 -0.64824,-1.43754 -1.8188,-3.19484 -2.60124,-3.9051 -1.71582,-1.55754 -3.75596,-4.02143 -3.75596,-4.5361 0,-0.20516 -1.35878,-1.92673 -3.01951,-3.82571 -1.66073,-1.898987 -3.53573,-4.494767 -4.16667,-5.7684 -1.06552,-2.150913 -4.68592,-5.242807 -7.81382,-6.673167 -1.2978,-0.593466 -1.29335,-0.621586 0.16666,-1.054846 1.7092,-0.507207 1.83862,-1.105774 0.68476,-3.16678 -0.44838,-0.800894 -1.13671,-5.506174 -1.52962,-10.456174 -0.67991,-8.565851 -0.63739,-9.305512 0.88142,-15.333333 0.87768,-3.483333 1.79149,-6.483333 2.03068,-6.666667 0.23919,-0.183333 0.88441,-1.218968 1.43382,-2.301411 1.43984,-2.836713 9.92678,-10.966753 12.64224,-12.110601 1.27049,-0.535171 2.47049,-1.192086 2.66667,-1.459812 0.19619,-0.267726 2.4567,-1.229542 5.02337,-2.137368 3.77294,-1.334487 5.9666,-1.654289 11.45441,-1.669885 6.45579,-0.01835 6.88881,-0.109341 8.85435,-1.860641 1.13663,-1.012743 2.80714,-2.178765 3.71225,-2.59116 0.90511,-0.412394 1.64565,-1.001654 1.64565,-1.309465 0,-0.307811 0.45,-0.559657 1,-0.559657 1.98579,0 0.94032,1.824412 -1.7374,3.031898 -2.69261,1.214198 -4.06721,3.145182 -3.43034,4.8188 0.31689,0.832741 5.63331,3.561807 8.7303,4.481506 1.54948,0.46014 6.10411,4.79285 6.10411,5.806688 0,0.952644 -1.10364,0.553234 -2.38565,-0.86337 -0.69244,-0.765129 -2.46393,-2.194171 -3.93666,-3.17565 -9.52922,-6.350599 -20.18681,-7.54129 -31.01102,-3.46462 -3.11667,1.173814 -6.14029,2.56108 -6.71916,3.082812 -0.57888,0.521732 -1.32888,0.951237 -1.66667,0.954456 -0.98507,0.0094 -8.94751,7.968913 -8.94751,8.944234 0,0.487659 -0.43071,1.244116 -0.95714,1.681015 -0.52644,0.436899 -1.16108,1.748633 -1.41032,2.914963 -0.24924,1.166331 -0.78105,2.52668 -1.1818,3.022997 -0.44972,0.556979 -0.73924,4.639941 -0.75635,10.666667 -0.0359,12.623751 0.90561,16.879738 4.7782,21.600698 1.57341,1.9181 2.86075,3.726726 2.86075,4.019173 0,0.809347 2.84824,4.6916 4.16666,5.679313 C 145.475,97.015627 146,97.831373 146,98.34768 c 0,0.516307 0.6,1.259853 1.33333,1.65232 0.7797,0.41728 1.33334,1.39588 1.33334,2.35679 0,0.98318 0.3843,1.64321 0.95676,1.64321 0.52622,0 1.80122,1.22876 2.83334,2.73057 1.03211,1.50182 2.70156,3.61216 3.7099,4.68966 1.00833,1.07749 1.83333,2.32657 1.83333,2.77572 0,0.44916 0.6,1.19136 1.33333,1.64934 0.73334,0.45797 1.33334,1.24242 1.33334,1.74323 0,0.50081 1.05,2.05689 2.33333,3.45796 1.28333,1.40108 2.33333,2.91379 2.33333,3.36157 0,0.4478 0.25334,0.91417 0.56299,1.0364 1.02141,0.40317 9.29681,11.06356 9.78679,12.60738 0.54246,1.70912 1.29587,2.73454 3.5471,4.82772 0.85994,0.79958 1.96352,2.20378 2.4524,3.12045 0.48888,0.91667 1.73528,2.59494 2.7698,3.7295 1.0345,1.13456 2.47805,3.23456 3.20788,4.66667 0.72982,1.4321 1.4959,2.75383 1.70238,2.93716 1.24521,1.10555 7.97066,10.04391 7.97066,10.59328 0,0.36545 0.52962,1.05646 1.17694,1.53559 0.6473,0.47912 1.50739,1.62113 1.9113,2.5378 0.4039,0.91667 1.82641,3.01667 3.16113,4.66667 1.33472,1.65 2.67272,3.30676 2.97334,3.6817 1.69117,2.10927 5.44396,7.88668 5.44396,8.38098 0,0.31885 1.05,1.66094 2.33333,2.98242 1.28334,1.32148 2.33334,2.82694 2.33334,3.34546 0,1.32656 -0.27554,1.19477 -1.86194,-0.89056 z m 58.5286,0.42926 c 0,-0.40556 0.86008,-1.83056 1.91129,-3.16666 1.05121,-1.3361 2.58711,-3.77927 3.41313,-5.42927 0.82601,-1.65 2.4847,-4.38221 3.68596,-6.07158 1.20126,-1.68937 3.46101,-5.43937 5.02166,-8.33333 1.56065,-2.89397 3.84189,-6.8126 5.06942,-8.70807 1.22753,-1.89547 2.23188,-3.63693 2.23188,-3.86991 0,-0.23298 1.13482,-2.13214 2.52182,-4.22036 1.387,-2.08821 3.10522,-4.92175 3.81826,-6.29675 0.71305,-1.375 1.53566,-2.5 1.82802,-2.5 0.29236,0 0.82342,-0.675 1.18014,-1.5 0.74659,-1.72669 1.6992,-3.29631 3.81675,-6.28885 0.82592,-1.1672 1.50167,-2.5922 1.50167,-3.16667 0,-0.57447 0.23178,-1.04448 0.51507,-1.04448 0.28328,0 1.10828,-1.10294 1.83333,-2.45099 0.72505,-1.34804 1.62042,-2.77304 1.9897,-3.16666 0.36929,-0.39362 1.63549,-2.57828 2.81378,-4.85479 1.17829,-2.27651 2.78939,-4.88327 3.58022,-5.79281 1.60116,-1.84149 2.6291,-3.53496 4.39154,-7.23475 0.65499,-1.375 1.41242,-2.5 1.68318,-2.5 0.27075,0 0.98643,-0.975 1.5904,-2.16667 0.60396,-1.19166 2.26167,-3.88827 3.68378,-5.992457 C 332.83645,97.736687 334,95.59842 334,95.089167 c 0,-0.509247 0.45,-1.299374 1,-1.755834 0.55,-0.45646 1,-1.246126 1,-1.75482 0,-0.508693 0.6,-1.438633 1.33333,-2.066533 0.73334,-0.6279 1.33334,-1.406653 1.33334,-1.730567 0,-0.32392 0.79636,-1.532246 1.76969,-2.685173 3.03641,-3.596693 6.75355,-12.575213 7.5364,-18.203727 0.48377,-3.47817 0.49593,-5.357158 0.0376,-5.815456 -0.37235,-0.372382 -0.67703,-2.717057 -0.67703,-5.21039 0,-2.577778 -0.28758,-4.533334 -0.66666,-4.533334 C 346.3,51.333333 346,50.42336 346,49.311171 c 0,-3.926876 -4.26063,-10.741359 -10.65213,-17.0371 -2.6249,-2.58557 -2.80675,-2.940738 -1.50566,-2.940738 0.8139,0 1.85453,0.6 2.3125,1.333334 C 336.61269,31.4 337.35467,32 337.80357,32 c 0.4489,0 1.17131,0.675 1.60535,1.5 1.24801,2.372128 3.98848,5.457397 5.29337,5.959361 0.77879,0.299584 1.07625,0.910173 0.8552,1.75546 -0.18642,0.712854 0.18985,2.306142 0.83614,3.540639 0.6463,1.234497 1.11467,3.10482 1.04083,4.156273 -0.0738,1.051454 0.14555,2.251454 0.48753,2.666667 0.34198,0.415213 0.7894,2.704933 0.99426,5.088267 0.20486,2.383333 0.56343,5.937418 0.79682,7.897965 0.26932,2.262468 0.1557,3.833261 -0.31104,4.300001 -0.92938,0.92938 -0.95222,3.318514 -0.0405,4.230287 0.48212,0.48212 0.38004,0.956247 -0.33334,1.5483 -0.56554,0.469353 -1.02825,1.155247 -1.02825,1.524207 0,0.368953 -1.12877,2.35722 -2.50839,4.418366 -1.37962,2.061147 -2.93031,4.57254 -3.44599,5.580874 C 341.52993,87.175 340.8587,88 340.55399,88 c -0.3047,0 -0.55401,0.413267 -0.55401,0.918373 0,0.5051 -0.42099,1.267754 -0.93553,1.69478 -0.51453,0.427034 -1.73374,2.407934 -2.70935,4.402007 -0.97561,1.994073 -2.05463,3.799127 -2.39781,4.011227 -0.34319,0.2121 -0.62398,0.935833 -0.62398,1.608303 0,0.67246 -0.40666,1.37871 -0.90369,1.56944 -0.91271,0.35024 -4.95775,6.85854 -5.98475,9.6292 -0.3058,0.825 -0.76278,1.5 -1.01551,1.5 -0.25273,0 -1.03822,1.125 -1.74553,2.5 -0.70731,1.375 -2.23256,3.7 -3.38945,5.16667 -1.15689,1.46667 -2.34001,3.41667 -2.62918,4.33333 -0.28916,0.91667 -2.28213,4.35612 -4.42882,7.64322 -2.14669,3.28711 -3.90307,6.36211 -3.90307,6.83334 0,0.47122 -0.24443,0.85678 -0.54319,0.85678 -0.29875,0 -1.04691,0.975 -1.66255,2.16666 -1.47701,2.85893 -2.48042,4.42741 -4.29426,6.71255 -0.825,1.03936 -1.5,2.31673 -1.5,2.83861 0,0.52186 -0.25283,0.94884 -0.56185,0.94884 -0.30902,0 -1.28367,1.425 -2.16589,3.16667 -1.73442,3.42405 -1.77412,3.4855 -4.25837,6.59168 -1.86245,2.32872 -5.68053,9.32385 -5.68053,10.40735 0,0.38334 -1.00854,1.92788 -2.24118,3.43231 -1.23266,1.50443 -3.29956,4.83533 -4.59312,7.40199 -1.29357,2.56667 -2.98504,5.23816 -3.75882,5.93666 -0.77379,0.6985 -1.40688,1.7635 -1.40688,2.36667 0,1.31381 -1.26491,2.69667 -2.46667,2.69667 -0.47667,0 -0.86667,-0.33182 -0.86667,-0.7374 z M 324,183.80495 c 0,-1.36515 0.58034,-2.09752 2.5,-3.15492 3.20081,-1.7631 7.97961,-5.22948 14.46206,-10.49031 2.82853,-2.29549 5.41919,-4.00279 5.75703,-3.79399 0.96524,0.59656 0.71749,2.30094 -0.33448,2.30094 -0.52179,0 -1.79679,0.84 -2.83333,1.86666 -1.03653,1.02666 -3.68461,3.19989 -5.88461,4.8294 -2.2,1.6295 -4.23991,3.3395 -4.53313,3.8 -0.29322,0.4605 -0.96822,0.83727 -1.5,0.83727 -0.53178,0 -0.96687,0.27979 -0.96687,0.62174 0,0.34196 -0.675,0.82566 -1.5,1.0749 -0.825,0.24923 -2.325,1.22557 -3.33334,2.16965 L 324,185.58279 Z M 129.00672,83.989127 c 0.23031,-0.372647 0.69801,-0.504947 1.03935,-0.293987 0.92469,0.571487 0.75227,0.971527 -0.41875,0.971527 -0.57164,0 -0.85091,-0.304894 -0.6206,-0.67754 z m 223.22476,-13.32246 c 1.25283,-1.1 2.61327,-2 3.0232,-2 0.40993,0 0.74532,-0.229914 0.74532,-0.510914 0,-0.72414 6.68666,-4.634712 8.85575,-5.179119 1.15428,-0.289707 1.81092,-0.186575 1.81092,0.284427 0,0.406416 -0.75,0.738939 -1.66667,0.738939 -0.91667,0 -1.66667,0.293903 -1.66667,0.653117 0,0.359215 -1.14506,1.237288 -2.5446,1.951275 -1.39952,0.713988 -2.93626,1.770081 -3.41496,2.346881 C 356.89507,69.528073 355.94268,70 355.25735,70 c -0.68533,0 -1.62076,0.6 -2.07873,1.333333 -0.45797,0.733334 -1.37096,1.333334 -2.02885,1.333334 -0.91006,0 -0.65134,-0.478367 1.08171,-2 z M 100,69.748293 c 0,-0.138433 0.45,-0.625166 1,-1.081626 0.81901,-0.679714 1,-0.63416 1,0.251706 C 102,69.513267 101.55,70 101,70 c -0.55,0 -1,-0.113267 -1,-0.251707 z m 2.7193,-2.883593 c -0.0771,-1.174475 1.40255,-4.198033 2.05438,-4.198033 0.30781,0 0.55965,-0.341412 0.55965,-0.758694 0,-1.127018 5.92622,-6.307394 9.08755,-7.943841 1.51482,-0.784137 3.31482,-1.293278 4,-1.131424 1.18,0.278741 1.17538,0.320524 -0.0875,0.791238 -3.25437,1.212963 -4.84218,2.19337 -7.38708,4.561201 -1.49623,1.392126 -3.37123,2.986986 -4.16667,3.544132 -0.79543,0.557146 -1.44625,1.431075 -1.44625,1.942064 0,0.510988 -0.40601,1.168977 -0.90224,1.462197 -0.49624,0.293219 -1.07255,0.983127 -1.2807,1.533127 -0.20816,0.55 -0.40214,0.639113 -0.43109,0.198033 z m 17.11403,-15.306221 c 0.45834,-0.184941 1.20834,-0.184941 1.66667,0 0.45833,0.184942 0.0833,0.336258 -0.83333,0.336258 -0.91667,0 -1.29167,-0.151316 -0.83334,-0.336258 z m 2.59417,-0.739448 c -0.22545,-0.364788 0.83317,-0.79955 2.41915,-0.993513 1.55101,-0.189686 3.34502,-0.560123 3.98668,-0.823193 C 129.65887,48.663869 130,48.837262 130,49.595341 c 0,0.683267 -0.57352,1.071326 -1.58333,1.071326 -0.87084,0 -2.48445,0.180223 -3.58582,0.400496 -1.10136,0.220272 -2.18287,0.108613 -2.40335,-0.248132 z M 370.80836,46.891535 C 367.79389,44.418765 367.50944,44 368.84425,44 c 1.63667,0 6.158,4.076784 5.73056,5.167119 -0.13282,0.338774 -1.82772,-0.685239 -3.76645,-2.275584 z M 363,42.666667 c -0.22661,-0.366667 -1.21932,-0.671261 -2.20601,-0.676876 -1.25475,-0.0071 -1.52315,-0.181836 -0.89295,-0.581189 0.99453,-0.630225 4.49627,-0.01356 6.48797,1.142553 1.13287,0.65759 1.03658,0.743931 -0.84966,0.761906 -1.17003,0.01115 -2.31274,-0.279728 -2.53935,-0.646394 z M 348.33333,40 c 0.22662,-0.366667 2.47662,-0.666667 5,-0.666667 2.52339,0 4.77339,0.3 5,0.666667 0.26176,0.423533 -1.56174,0.666667 -5,0.666667 -3.43825,0 -5.26176,-0.243134 -5,-0.666667 z m -60.16666,-6.487667 c -1.56475,-0.54474 -0.83644,-2.025606 1.55414,-3.160008 1.31311,-0.623112 2.53888,-0.981528 2.72392,-0.796478 0.57988,0.579873 -3.40124,4.261736 -4.27806,3.956486 z m 6.12742,-5.866868 c 0.71174,-0.53834 1.91174,-0.969257 2.66666,-0.957596 1.3502,0.02086 1.35148,0.03717 0.0785,1 -0.71175,0.538339 -1.91175,0.969256 -2.66667,0.957596 -1.35019,-0.02086 -1.35147,-0.03717 -0.0785,-1 z m 36.91424,0.565792 c 0.48125,-0.19258 1.05626,-0.168896 1.27778,0.05263 0.22153,0.221528 -0.17222,0.379094 -0.875,0.350146 -0.77663,-0.03199 -0.9346,-0.18996 -0.40278,-0.402778 z M 323,25.952217 c -2.49971,-0.98895 -4.99661,-1.328542 -9.98417,-1.357901 -8.79182,-0.05175 -6.87522,-1.347658 2.20652,-1.491937 5.46445,-0.08681 7.07786,0.150524 10.61098,1.560894 C 328.125,25.578072 330,26.553072 330,26.829939 c 0,0.915085 -3.61376,0.461959 -7,-0.877722 z"
     style="fill:#000000;stroke-width:0.66666669" />
</svg>
