<?xml version="1.0" encoding="UTF-8" standalone="no"?>
<!-- Created with Inkscape (http://www.inkscape.org/) -->

<svg
   width="210mm"
   height="297mm"
   viewBox="0 0 210 297"
   version="1.1"
   id="svg5"
   inkscape:version="1.2.2 (b0a8486, 2022-12-01)"
   sodipodi:docname="asasasassss.svg"
   xmlns:inkscape="http://www.inkscape.org/namespaces/inkscape"
   xmlns:sodipodi="http://sodipodi.sourceforge.net/DTD/sodipodi-0.dtd"
   xmlns="http://www.w3.org/2000/svg"
   xmlns:svg="http://www.w3.org/2000/svg">
  <sodipodi:namedview
     id="namedview7"
     pagecolor="#ffffff"
     bordercolor="#666666"
     borderopacity="1.0"
     inkscape:showpageshadow="2"
     inkscape:pageopacity="0.0"
     inkscape:pagecheckerboard="0"
     inkscape:deskcolor="#d1d1d1"
     inkscape:document-units="mm"
     showgrid="false"
     inkscape:lockguides="true"
     inkscape:zoom="0.49617241"
     inkscape:cx="112.86399"
     inkscape:cy="-1038.9534"
     inkscape:window-width="1440"
     inkscape:window-height="733"
     inkscape:window-x="0"
     inkscape:window-y="49"
     inkscape:window-maximized="0"
     inkscape:current-layer="layer1" />
  <defs
     id="defs2" />
  <g
     inkscape:label="Layer 1"
     inkscape:groupmode="layer"
     id="layer1">
    <path
       style="fill:#ff0000;stroke:#000000;stroke-width:0.122761px;stroke-linecap:butt;stroke-linejoin:miter;stroke-opacity:1"
       d="m 89.808934,121.30881 c -13.288185,2.53581 -27.413023,4.16149 -7.836436,-9.94686 -10.730323,-38.079059 -0.953279,-11.35557 5.052212,-10.93226 29.9703,-35.170889 20.54404,-13.945769 10.031943,6.89626 14.416897,3.06196 48.754647,4.36603 -3.303292,13.294 0,0 47.674729,0.002 39.681899,15.69431 -5.35497,10.51356 -13.80963,-5.68411 -21.8426,-0.17525 -8.03297,5.50886 1.36956,30.79719 -6.66341,30.47314 -8.03296,-0.32405 -14.547133,0.52238 -11.563458,-13.41181 1.453416,-6.78766 4.036648,-7.47764 4.575957,-12.72164 0.567823,-5.52125 -4.456093,-8.77499 -12.751892,0.40949 -6.46671,7.15945 -10.289214,17.22959 -14.420455,3.61946 -4.13124,-13.61013 19.039532,-23.19884 19.039532,-23.19884 z"
       id="path160"
       sodipodi:nodetypes="cccccsssssssc" />
    <text
       xml:space="preserve"
       style="font-style:normal;font-weight:normal;font-size:27.1639px;line-height:1.25;font-family:sans-serif;fill:#000000;fill-opacity:1;stroke:none;stroke-width:0.264583"
       x="51.725132"
       y="222.36473"
       id="text373"><tspan
         sodipodi:role="line"
         id="tspan371"
         style="font-style:normal;font-variant:normal;font-weight:normal;font-stretch:normal;font-size:27.1639px;font-family:Impact;-inkscape-font-specification:Impact;fill:#ff0000;stroke-width:0.264583"
         x="51.725132"
         y="222.36473">INGUYOM</tspan></text>
  </g>
</svg>
