<?xml version="1.0" encoding="utf-8"?>
<!-- Generator: Adobe Illustrator 14.0.0, SVG Export Plug-In . SVG Version: 6.00 Build 43363)  -->
<!DOCTYPE svg PUBLIC "-//W3C//DTD SVG 1.0//EN" "http://www.w3.org/TR/2001/REC-SVG-20010904/DTD/svg10.dtd">
<svg version="1.0" id="レイヤー_1" xmlns="http://www.w3.org/2000/svg" xmlns:xlink="http://www.w3.org/1999/xlink" x="0px"
	 y="0px" width="365.67px" height="496.06px" viewBox="0 0 365.67 496.06" enable-background="new 0 0 365.67 496.06"
	 xml:space="preserve">
<g id="XMLID_1_">
	<g>
		<path fill="#F7CB67" d="M144.1,281.24c0,0,23.26-45.81,27.62-88.94l0.43,0.05l-11.08,106.16L144.1,281.24z"/>
		<path fill="#9ED1A4" d="M128.37,258.22c0,0,43.79-70.79,29.4-100.5H170l-25.9,123.52L128.37,258.22z"/>
		<path fill="#F7CB67" d="M171.72,192.3c1.22-12.09,0.96-23.98-1.72-34.58h5.77l-3.62,34.63L171.72,192.3z"/>
		<path fill="#F7CB67" d="M175.77,157.72c25.2,72.88-14.7,140.79-14.7,140.79l11.08-106.16L175.77,157.72z"/>
		<path fill="#9ED1A4" d="M144.1,281.24L170,157.72c2.68,10.6,2.94,22.49,1.72,34.58C167.36,235.43,144.1,281.24,144.1,281.24z"/>
	</g>
	<g>
		<path fill="none" stroke="#FFFFFF" d="M144.1,281.24c0,0,23.26-45.81,27.62-88.94c1.22-12.09,0.96-23.98-1.72-34.58"/>
	</g>
</g>
<g id="XMLID_2_">
	<g>
		<path fill="#BC9562" d="M170,305.92h-25.9c-4.25-33.77-49.38-87.01-50.79-88.66l-0.03-0.04l0.24-18.71
			C93.52,198.51,166.4,273.04,170,305.92z"/>
		<path fill="#5B92AB" d="M144.1,305.92l-50.79-88.66C94.72,218.91,139.85,272.15,144.1,305.92z"/>
		<path fill="#5B92AB" d="M93.31,217.26l50.79,88.66h-26.16c-6.01-34.31-24.42-60.65-24.42-60.65l-0.24-28.05L93.31,217.26z"/>
	</g>
	<g>
		<path fill="none" stroke="#FFFFFF" d="M144.1,305.92c-4.25-33.77-49.38-87.01-50.79-88.66"/>
	</g>
</g>
<path fill="none" stroke="#000000" d="M72.413,157.72"/>
<path fill="none" stroke="#000000" d="M93.413,166.571"/>
<g id="XMLID_3_">
	<g>
		<path fill="#F5F4B5" d="M114.38,157.72c-20.86,0-20.86,20.86-20.86,20.86l-21.11-20.86l20.87-20.86h143.89v20.86H114.38z"/>
		<polygon fill="#F5F4B5" points="93.52,178.58 93.52,305.92 72.41,305.92 72.41,157.72 		"/>
		<path fill="#F5F4B5" d="M93.28,136.86l-20.87,20.86C72.41,157.72,72.41,136.86,93.28,136.86z"/>
	</g>
	<g>
	</g>
</g>
<rect x="16.864" y="198.51" fill="#FFFFFF" stroke="#000000" width="20.863" height="20.862"/>
<path fill="#BC9562" d="M165.221,290.436"/>
<g id="XMLID_4_">
	<g>
		<path fill="#EECAD1" d="M237.17,157.72v111.29c0,0,0,20.87-20.87,20.87h-50.82c9.63-20.52,30.12-74.8,10.29-132.16H237.17z"/>
	</g>
	<g>
	</g>
</g>
<g id="XMLID_5_">
	<g>
		<path fill="#71C7D5" d="M157.77,157.72c10.68,22.04-10.68,66.7-22.41,88.28c-20.25-25.42-41.84-47.49-41.84-47.49l-0.12,9.36
			v-29.29c0,0,0-20.86,20.86-20.86H157.77z"/>
		<path fill="#B6D599" d="M117.94,305.92H93.4v-60.65h0.12C93.52,245.27,111.93,271.61,117.94,305.92z"/>
	</g>
	<g>
	</g>
</g>
</svg>
