<?xml version="1.0" encoding="UTF-8" standalone="no"?>
<!-- Created with Inkscape (http://www.inkscape.org/) -->

<svg
   width="210mm"
   height="297mm"
   viewBox="0 0 210 297"
   version="1.1"
   id="svg5"
   xml:space="preserve"
   inkscape:version="1.2.2 (b0a8486, 2022-12-01)"
   sodipodi:docname="描画.svg"
   xmlns:inkscape="http://www.inkscape.org/namespaces/inkscape"
   xmlns:sodipodi="http://sodipodi.sourceforge.net/DTD/sodipodi-0.dtd"
   xmlns="http://www.w3.org/2000/svg"
   xmlns:svg="http://www.w3.org/2000/svg"><sodipodi:namedview
     id="namedview7"
     pagecolor="#ffffff"
     bordercolor="#666666"
     borderopacity="1.0"
     inkscape:showpageshadow="2"
     inkscape:pageopacity="0.0"
     inkscape:pagecheckerboard="0"
     inkscape:deskcolor="#d1d1d1"
     inkscape:document-units="mm"
     showgrid="false"
     inkscape:zoom="0.52868849"
     inkscape:cx="601.48841"
     inkscape:cy="613.78299"
     inkscape:window-width="1440"
     inkscape:window-height="799"
     inkscape:window-x="0"
     inkscape:window-y="25"
     inkscape:window-maximized="0"
     inkscape:current-layer="g229" /><defs
     id="defs2" /><g
     inkscape:label="Layer 1"
     inkscape:groupmode="layer"
     id="layer1"><g
       id="g229"
       transform="matrix(0.99292358,0,0,0.99292358,0.74525569,1.7496205e-5)"><path
         id="path179"
         style="fill:#000000;stroke-width:0.771433"
         d="M 34.043412 0.0025846152 C 33.705728 0.0025846152 32.494621 1.1306463 31.351659 2.5095789 C 30.208698 3.8885145 22.540259 11.841407 14.311176 20.182405 L -0.65064115 35.347717 L -0.65064115 43.993386 L -0.65064115 52.639576 L 2.6281764 49.750053 C 4.4313993 48.161002 9.6515796 43.087042 14.228425 38.474564 C 18.805271 33.862098 22.796983 30.089059 23.099448 30.090159 C 23.401909 30.091271 23.764147 39.605858 23.904059 51.233328 C 24.155713 72.147764 24.141192 72.379404 22.536844 72.888616 C 19.318229 73.910172 16.614069 72.462794 10.87206 66.644291 C 7.7167168 63.446924 3.8336032 59.786179 2.242525 58.50918 L -0.65064115 56.187465 L -0.65064115 80.16655 L -44.171479 295.97051 L 66.019689 342.74519 C 69.846289 346.64986 62.737918 290.03177 54.486058 230.90628 L 49.183222 222.53281 L 49.183222 238.41582 L 46.645521 238.41582 L 46.645521 218.79235 L 49.784338 218.79235 L 53.664793 225.01586 C 52.647482 217.77204 51.636065 210.81611 50.611849 203.66035 C 49.372532 203.33486 48.272642 202.74598 47.313255 201.89135 C 45.273912 200.06574 44.254066 197.24717 44.254066 193.43564 C 44.254066 190.54138 45.020107 188.16773 46.55184 186.31541 C 46.973768 185.80274 47.436993 185.35629 47.940394 184.97421 C 46.544076 175.342 45.319318 166.99815 44.053694 158.39237 L 44.053694 168.49217 L 42.344025 168.49217 L 41.702834 165.96748 C 40.803386 166.95598 40.006522 167.64187 39.311899 168.02481 C 38.145288 168.68381 36.662533 169.01314 34.863637 169.01314 C 32.53932 169.01314 30.539703 168.26097 28.865482 166.75596 C 27.03987 164.86801 26.12741 162.27653 26.12741 158.98152 C 26.12741 155.69541 27.01778 153.08132 28.798865 151.13994 C 30.490896 149.28761 32.681634 148.36179 35.371073 148.36179 C 37.214496 148.36179 38.808743 148.71784 40.153462 149.43027 C 41.621354 150.20108 42.660147 151.4085 43.270421 153.05206 C 39.065717 124.52258 35.908216 103.51069 35.992487 103.37433 C 36.25471 102.95004 37.316514 102.60303 38.352194 102.60303 C 39.387873 102.60303 40.235172 102.95004 40.235172 103.37433 C 40.235172 103.49563 43.517237 123.7103 48.101212 150.798 L 48.101212 148.86923 L 56.425765 148.86923 C 52.686436 133.54478 48.574893 117.92098 44.092727 102.34385 C 43.665565 100.8593 44.751892 100.35846 48.709615 99.258116 C 51.248934 98.552107 54.129889 97.974693 55.112156 97.974693 C 56.094425 97.974693 57.228048 97.678587 57.631121 97.316848 C 58.034194 96.955108 60.100027 96.206428 62.221466 95.653499 C 67.866535 94.18224 71.864312 92.515883 71.864312 91.633564 C 71.864312 90.802925 67.198895 91.431398 65.01939 92.555797 C 62.670031 93.767855 55.508789 95.655333 54.836319 95.239743 C 54.467825 95.012003 53.083574 95.385897 51.759956 96.070377 C 50.436338 96.754806 48.875203 97.131065 48.290655 96.906735 C 47.706106 96.682436 47.022761 96.830939 46.77199 97.236699 C 45.857397 98.716547 45.057298 97.908834 44.637636 95.081527 C 44.401469 93.490459 43.680317 89.2382 43.034658 85.631767 C 40.825278 73.29085 38.587979 48.934328 39.226546 44.173461 C 39.464542 42.399068 39.116303 38.422154 38.45212 35.326379 C 37.788509 32.233304 36.860442 24.842666 36.389588 18.902626 C 35.163752 3.4382756 34.737076 0.0025846152 34.043412 0.0025846152 z M 56.425765 148.86923 C 56.614605 149.64313 56.795188 150.40977 56.982123 151.18209 C 57.413442 151.24443 57.775424 151.33695 58.066735 151.46053 C 59.10867 151.90581 59.629638 152.76998 59.629638 154.05236 C 59.629638 155.26811 59.181764 156.1255 58.288966 156.62701 C 58.550596 157.72871 58.801521 158.81739 59.059228 159.9152 C 60.070682 160.46359 60.577893 161.37145 60.577893 162.6413 C 60.577893 163.35419 60.420892 163.97751 60.111052 164.51335 C 60.33271 165.47309 60.548713 166.42528 60.767336 167.38154 C 61.258652 167.05684 61.685865 166.6621 62.047116 166.19492 C 62.839699 165.17079 63.236338 164.0261 63.236338 162.76153 C 63.236338 161.25651 62.795519 160.07688 61.913881 159.22196 C 61.415177 158.74107 60.662494 158.30898 59.656181 157.92605 C 60.341899 157.57874 60.867493 157.19598 61.232616 156.77742 C 61.936145 155.98484 62.287562 154.96962 62.287562 153.73177 C 62.287562 152.67202 62.002935 151.73695 61.432988 150.92656 C 60.462296 149.55512 58.827975 148.86923 56.530375 148.86923 L 56.425765 148.86923 z M 60.767336 167.38154 C 59.647791 168.1214 58.191504 168.49217 56.39662 168.49217 L 51.118765 168.49217 C 51.976395 173.48116 52.760806 178.07075 53.67312 183.30097 C 56.027817 183.34704 57.867473 183.99917 59.18882 185.26046 C 60.560255 186.56956 61.32167 188.05642 61.473062 189.72173 L 58.881235 189.72173 C 58.587356 188.45716 57.999597 187.4553 57.11796 186.71615 C 56.368724 186.08159 55.35546 185.72133 54.08115 185.63154 C 54.94745 190.58638 55.814191 195.52655 56.713573 200.58763 C 57.141773 200.25857 57.522131 199.85265 57.852832 199.36666 C 58.396063 198.57408 58.801433 197.53214 59.068596 196.24085 L 61.659903 196.24085 C 61.428362 198.30691 60.662321 200.03885 59.362128 201.437 C 58.721054 202.12936 57.986595 202.67666 57.161678 203.08421 C 58.09431 208.31714 59.028966 213.56076 59.98042 218.79235 L 62.220945 218.79235 L 62.220945 230.91929 C 71.74688 282.33385 81.292028 327.38952 83.75549 316.40379 C 85.138599 310.23587 82.155238 279.91318 75.009895 238.32838 L 74.978148 238.41582 L 72.159405 238.41582 L 65.012624 218.79235 L 67.95159 218.79235 L 73.588553 235.50339 L 74.196436 233.67923 C 72.228807 222.48571 69.98028 210.58714 67.430622 198.10926 L 67.430622 203.45425 L 64.892401 203.45425 L 64.892401 186.01563 C 63.583559 179.89357 62.20837 173.68459 60.767336 167.38154 z M 64.892401 186.01563 C 65.764126 190.09309 66.617733 194.13103 67.430622 198.10926 L 67.430622 187.57124 L 77.489305 203.45425 L 80.468345 203.45425 L 80.468345 183.83079 L 77.943656 183.83079 L 77.943656 199.72733 L 68.031738 183.83079 L 64.892401 183.83079 L 64.892401 186.01563 z M 74.196436 233.67923 C 74.470175 235.23648 74.747474 236.80113 75.009895 238.32838 L 82.13794 218.79235 L 79.1589 218.79235 L 74.196436 233.67923 z M 62.220945 230.91929 C 61.472895 226.88182 60.724786 222.88527 59.98042 218.79235 L 59.696256 218.79235 L 59.696256 234.68889 L 53.664793 225.01586 C 53.943255 226.99867 54.209819 228.927 54.486058 230.90628 L 59.241905 238.41582 L 62.220945 238.41582 L 62.220945 230.91929 z M 57.161678 203.08421 C 57.013448 202.25251 56.861117 201.4179 56.713573 200.58763 C 55.815706 201.27761 54.704577 201.62384 53.378026 201.62384 C 52.149391 201.62384 51.096858 201.38511 50.218391 200.91031 C 50.350066 201.82836 50.479954 202.73886 50.611849 203.66035 C 51.374202 203.86057 52.189154 203.96169 53.057431 203.96169 C 54.614347 203.96169 55.981225 203.66742 57.161678 203.08421 z M 50.218391 200.91031 C 49.605355 196.63616 48.991569 192.27851 48.387978 188.10678 C 47.440741 189.45454 46.966116 191.38082 46.966116 193.88947 C 46.966116 196.18707 47.500443 198.05311 48.569094 199.48688 C 49.024622 200.08923 49.575068 200.56259 50.218391 200.91031 z M 48.387978 188.10678 C 48.499952 187.94746 48.617192 187.79449 48.742403 187.65139 C 49.93573 186.28886 51.498634 185.6076 53.431112 185.6076 C 53.655421 185.6076 53.871107 185.61674 54.08115 185.63154 C 53.945639 184.85647 53.807637 184.07215 53.67312 183.30097 C 53.583859 183.29923 53.495315 183.29681 53.404569 183.29681 C 51.23427 183.29681 49.413251 183.85633 47.940394 184.97421 C 48.087217 185.98704 48.240303 187.08612 48.387978 188.10678 z M 51.118765 168.49217 C 50.981463 167.69346 50.867221 167.01237 50.731552 166.22146 L 50.70605 166.22146 L 50.70605 166.07209 C 49.7942 160.7555 48.927774 155.68234 48.101212 150.798 L 48.101212 168.49217 L 51.118765 168.49217 z M 50.70605 166.07209 C 50.714968 166.12408 50.722627 166.16943 50.731552 166.22146 L 56.436695 166.22146 C 58.066388 166.22146 59.228547 165.7493 59.923171 164.80532 C 59.991836 164.71143 60.053192 164.61341 60.111052 164.51335 C 59.755704 162.97476 59.422372 161.46215 59.059228 159.9152 C 58.935754 159.84825 58.806399 159.78559 58.667852 159.7294 C 57.991039 159.45333 57.096043 159.31512 55.982865 159.31512 L 50.70605 159.31512 L 50.70605 166.07209 z M 58.288966 156.62701 C 57.859177 154.81721 57.422488 153.00146 56.982123 151.18209 C 56.5432 151.11866 56.032277 151.08685 55.448365 151.08685 L 50.70605 151.08685 L 50.70605 157.16464 L 55.542046 157.16464 C 56.66413 157.16464 57.536515 157.00896 58.159895 156.69727 C 58.204302 156.67507 58.246573 156.65083 58.288966 156.62701 z M 43.270421 153.05206 C 43.353083 153.61294 43.445012 154.24649 43.528563 154.81378 L 43.733098 154.81378 C 43.625165 154.17939 43.470976 153.59219 43.270421 153.05206 z M 43.528563 154.81378 L 41.101717 154.81378 C 40.781122 153.38 40.11784 152.33807 39.111527 151.68797 C 38.105214 151.02897 36.836189 150.69912 35.304455 150.69912 C 33.487748 150.69912 31.955666 151.38039 30.708906 152.74292 C 29.471052 154.10545 28.852471 156.13589 28.852471 158.83423 C 28.852471 161.16745 29.364187 163.06894 30.388311 164.53833 C 31.412435 165.99882 33.082204 166.72889 35.397616 166.72889 C 37.169796 166.72889 38.635087 166.21718 39.792792 165.19305 C 40.959403 164.16003 41.555894 162.49436 41.58261 160.19676 L 35.43769 160.19676 L 35.43769 157.99267 L 43.994883 157.99267 C 43.841361 156.94895 43.679328 155.83743 43.528563 154.81378 z M 43.994883 157.99267 C 44.014188 158.12391 44.034347 158.26082 44.053694 158.39237 L 44.053694 157.99267 L 43.994883 157.99267 z M 210.64885 13.116814 C 210.24378 13.116814 205.32134 17.846884 199.71009 23.627766 C 191.80118 31.775764 144.35041 79.944624 141.49078 82.728192 C 141.16988 83.040531 139.69229 84.436524 138.20728 85.830578 C 135.59397 88.283821 124.22822 100.31267 122.09632 102.88147 C 121.82469 103.20877 118.51206 122.19764 114.81266 148.86923 L 116.85593 148.86923 C 118.35205 148.86923 119.58562 149.08758 120.55631 149.52395 C 122.39974 150.36106 123.32145 151.90598 123.32145 154.15905 C 123.32145 155.33457 123.07638 156.29636 122.58658 157.04441 C 122.10568 157.79247 121.42905 158.39359 120.55631 158.84776 C 121.32218 159.15945 121.89658 159.56893 122.27951 160.07654 C 122.67135 160.58415 122.88919 161.40825 122.93372 162.54814 L 123.0274 165.17952 C 123.05411 165.92758 123.11628 166.484 123.21424 166.84912 C 123.37454 167.4725 123.65968 167.87324 124.06933 168.05135 L 124.06933 168.49217 L 120.80977 168.49217 C 120.72072 168.32297 120.64982 168.10513 120.59639 167.83797 C 120.54296 167.5708 120.49825 167.05394 120.46263 166.28808 L 120.30234 163.0155 C 120.24 161.73312 119.76373 160.87357 118.87319 160.43721 C 118.36558 160.19676 117.56819 160.07654 116.48173 160.07654 L 113.28671 160.07654 C 104.12993 229.89333 94.732072 338.48409 123.00606 336.01008 L 226.80197 326.92776 L 216.07295 168.49217 L 201.93396 168.49217 L 201.93396 148.86923 L 214.74425 148.86923 L 211.20625 96.624133 C 211.26045 92.487377 211.27053 82.333765 211.22863 74.060143 C 211.18653 65.786545 211.2046 48.68953 211.2687 36.066975 C 211.34044 21.925841 211.10265 13.116814 210.64885 13.116814 z M 214.74425 148.86923 L 214.90715 151.27369 L 216.24054 151.27369 L 216.24054 148.86923 L 214.74425 148.86923 z M 214.90715 151.27369 L 204.52527 151.27369 L 204.52527 157.23125 L 215.3105 157.23125 L 214.90715 151.27369 z M 215.3105 157.23125 L 215.3589 157.94687 L 215.3589 157.23125 L 215.3105 157.23125 z M 215.3589 157.94687 L 215.3589 159.50248 L 204.52527 159.50248 L 204.52527 166.15484 L 215.91474 166.15484 L 215.3589 157.94687 z M 215.91474 166.15484 L 216.07295 168.49217 L 216.44091 168.49217 L 216.44091 166.15484 L 215.91474 166.15484 z M 113.28671 160.07654 C 113.38181 159.35139 113.47482 158.57603 113.56983 157.85943 L 110.43049 157.85943 L 110.43049 154.38649 L 108.75205 168.49217 L 110.43049 168.49217 L 110.43049 160.07654 L 113.28671 160.07654 z M 108.75205 168.49217 L 107.77257 168.49217 L 107.77257 148.86923 L 111.08678 148.86923 L 116.40783 104.14616 L 116.94649 97.974693 C 117.31367 93.765227 117.79776 91.80323 118.46932 91.80323 C 120.00995 91.80323 122.12711 89.038977 122.41847 86.647159 C 122.56403 85.452249 122.9181 83.524485 123.20487 82.363358 C 123.68328 80.426415 123.4402 80.129645 120.26382 78.768109 L 116.80181 77.283793 L 117.58144 73.341926 C 118.25843 69.918012 118.17509 69.194737 116.94649 67.837156 C 115.77469 66.542339 115.48578 64.658733 115.26284 56.859883 C 114.90663 44.398815 114.76419 43.81628 112.14485 44.118294 L 110.05005 44.359781 L 109.88819 55.503597 C 109.71749 67.259522 109.08138 70.166533 106.04677 73.058803 C 104.50391 74.529304 104.09157 75.611782 104.31576 77.601786 C 104.34401 77.852568 103.73647 78.535645 102.96572 79.119931 C 101.65483 80.113725 101.68888 80.185849 103.49293 80.234729 C 104.55365 80.26347 106.34339 81.055497 107.47019 81.994882 C 109.3273 83.54311 109.56523 84.364125 110.01309 90.771183 C 110.35101 95.605638 110.23698 98.006371 109.65242 98.367631 C 108.51345 99.07156 107.2262 102.55026 107.77569 103.43939 C 105.93034 103.43939 103.13835 122.43537 100.15738 149.68737 C 101.0021 150.20282 101.72917 150.8639 102.33546 151.67444 C 103.63565 153.411 104.28609 155.63308 104.28609 158.34033 C 104.28609 161.27021 103.54214 163.7055 102.05493 165.64688 C 101.03336 166.98119 99.75494 167.92215 98.223923 168.47552 C 97.710026 173.62553 97.198989 178.67289 96.687042 184.12276 C 97.071116 184.21996 97.428831 184.33935 97.753959 184.48551 C 99.597382 185.32262 100.5191 186.86754 100.5191 189.12062 C 100.5191 190.29613 100.27402 191.25792 99.784224 192.00598 C 99.303331 192.75403 98.626691 193.35515 97.753959 193.80932 C 98.519826 194.12101 99.094226 194.53101 99.47716 195.03862 C 99.868999 195.54623 100.08683 196.36981 100.13136 197.5097 L 100.22504 200.14109 C 100.25176 200.88914 100.31392 201.44608 100.41188 201.8112 C 100.57218 202.43458 100.85733 202.83533 101.26698 203.01343 L 101.26698 203.45425 L 98.007417 203.45425 C 97.918363 203.28505 97.847466 203.06669 97.794033 202.79953 C 97.740601 202.53237 97.6959 202.01603 97.660279 201.25016 L 97.499981 197.97707 C 97.437643 196.69468 96.961375 195.83566 96.070833 195.39929 C 95.955948 195.34487 95.823992 195.29723 95.679456 195.25513 C 87.121954 289.72196 80.05539 409.6908 92.237739 307.29857 L 105.00743 199.96778 L 105.00743 183.83079 L 106.92736 183.83079 L 108.75205 168.49217 z M 106.92736 183.83079 L 105.00743 199.96778 L 105.00743 203.45425 L 107.69242 203.45425 L 107.69242 183.83079 L 106.92736 183.83079 z M 95.679456 195.25513 C 95.763397 194.3285 95.84662 193.40051 95.930832 192.47906 C 95.329643 192.70506 94.612354 192.821 93.773058 192.821 L 87.628138 192.821 L 87.628138 186.11503 L 94.120196 186.11503 C 95.02855 186.11503 95.754517 186.24861 96.297748 186.51578 C 96.354366 186.54409 96.408748 186.57422 96.462209 186.60529 C 96.537934 185.79245 96.611182 184.93032 96.687042 184.12276 C 95.924438 183.92976 95.048577 183.83079 94.053579 183.83079 L 84.970214 183.83079 L 84.970214 203.45425 L 87.628138 203.45425 L 87.628138 195.03862 L 93.679378 195.03862 C 94.519946 195.03862 95.185373 195.1112 95.679456 195.25513 z M 96.462209 186.60529 C 96.283043 188.52851 96.109013 190.52941 95.930832 192.47906 C 96.2227 192.36934 96.489288 192.2361 96.725035 192.07311 C 97.45528 191.57441 97.820576 190.67479 97.820576 189.37459 C 97.820576 188.05442 97.367348 187.13149 96.462209 186.60529 z M 98.223923 168.47552 C 98.314827 167.56452 98.405287 166.63404 98.496117 165.73432 C 97.546677 166.36977 96.351599 166.68882 94.908674 166.68882 C 92.441871 166.68882 90.655984 165.94539 89.551711 164.45818 C 88.456343 162.96207 87.908659 161.12738 87.908659 158.95445 C 87.908659 156.2383 88.54985 154.18577 89.832232 152.79652 C 91.114613 151.39837 92.771024 150.69912 94.801462 150.69912 C 96.894237 150.69912 98.541917 151.403 99.744149 152.81005 C 99.767016 152.83662 99.788331 152.86436 99.810766 152.89124 C 99.926601 151.81272 100.04208 150.7415 100.15738 149.68737 C 98.681869 148.787 96.844175 148.33473 94.641164 148.33473 C 91.328345 148.33473 88.826265 149.54621 87.134233 151.96849 C 85.81623 153.85644 85.157054 156.12733 85.157054 158.78114 C 85.157054 161.71994 85.927201 164.15112 87.46784 166.07469 C 89.195493 168.06951 91.569139 169.06674 94.588079 169.06674 C 95.928745 169.06674 97.13905 168.86763 98.223923 168.47552 z M 99.810766 152.89124 C 99.375087 156.94782 98.936343 161.37365 98.496117 165.73432 C 99.087789 165.33832 99.58457 164.82044 99.984596 164.17766 C 101.03544 162.49454 101.56103 160.56223 101.56103 158.3804 C 101.56103 156.11744 100.9766 154.2884 99.810766 152.89124 z M 111.08678 148.86923 L 110.8151 151.15347 L 114.49675 151.15347 C 114.60282 150.38027 114.70718 149.62969 114.81266 148.86923 L 111.08678 148.86923 z M 114.49675 151.15347 C 114.18536 153.42336 113.88426 155.48798 113.56983 157.85943 L 116.57541 157.85943 C 117.82217 157.85943 118.80605 157.60973 119.52739 157.11103 C 120.25763 156.61233 120.62293 155.71322 120.62293 154.41303 C 120.62293 153.01488 120.11532 152.06182 119.1001 151.55421 C 118.55687 151.28705 117.8309 151.15347 116.92255 151.15347 L 114.49675 151.15347 z M 110.8151 151.15347 L 110.43049 151.15347 L 110.43049 154.38649 L 110.8151 151.15347 z M 199.96303 39.345793 C 200.44707 39.345793 200.64935 45.051259 200.51678 54.967016 L 200.30756 70.58876 L 197.22183 70.761549 C 194.31899 70.924063 193.78195 70.579556 188.15772 64.95648 C 184.86949 61.668935 182.18884 58.640473 182.19964 58.226577 C 182.23529 56.928414 198.77738 39.345793 199.96303 39.345793 z M 35.905572 77.425875 C 36.159324 77.469388 36.625506 78.288056 37.02037 79.42075 C 37.499531 80.795264 37.542946 81.774212 37.124459 81.774212 C 36.326404 81.774212 35.198932 78.067965 35.810851 77.456061 C 35.837606 77.429306 35.869322 77.419659 35.905572 77.425875 z M 98.524221 81.002909 C 97.862759 81.002909 97.321467 81.349919 97.321467 81.774212 C 97.321467 82.198491 97.648236 82.546035 98.047491 82.546035 C 98.446735 82.546035 98.988014 82.198491 99.250245 81.774212 C 99.512464 81.349919 99.185695 81.002909 98.524221 81.002909 z M 92.446438 83.451613 C 92.019247 83.437764 91.208138 83.626828 90.06331 84.062098 C 88.912796 84.499499 88.173641 85.184505 88.420779 85.584406 C 88.679389 86.002843 89.837625 85.757808 91.149484 85.00723 C 92.803588 84.060852 93.158424 83.474695 92.446438 83.451613 z M 36.992786 85.631767 C 38.00957 85.631767 38.357329 86.196635 38.299109 87.75311 C 38.255469 88.9199 38.441564 90.221466 38.712864 90.645755 C 38.984171 91.070035 39.177473 93.146673 39.142233 95.260561 C 39.093385 98.191088 38.774501 99.163298 37.8 99.353358 C 36.2466 99.656348 35.919204 99.1003 35.727579 95.834094 C 35.630736 94.183385 35.985166 93.152287 36.750258 92.858697 C 37.394223 92.611597 37.921264 92.062007 37.921264 91.637728 C 37.921264 91.213438 37.400221 91.066127 36.763789 91.310366 C 35.855003 91.659086 35.606835 91.097439 35.606835 88.693037 C 35.606835 86.261413 35.892073 85.631767 36.992786 85.631767 z M 86.896389 85.831098 C 86.651703 85.808673 86.314179 85.87196 85.94293 86.025745 C 85.200418 86.33328 83.898336 86.68352 83.049764 86.803814 C 79.984366 87.238371 72.627538 90.394228 73.057697 91.090217 C 73.640498 92.033236 73.927113 91.996698 75.941495 90.7207 C 76.881204 90.12541 79.81975 89.007198 82.471547 88.235564 C 85.123335 87.463942 87.29297 86.525253 87.29297 86.149612 C 87.29297 85.961839 87.141075 85.853523 86.896389 85.831098 z M 155.23371 148.33473 C 157.71833 148.33473 159.64653 148.98928 161.01796 150.29838 C 162.3894 151.60747 163.15081 153.09485 163.30221 154.76017 L 160.7109 154.76017 C 160.41702 153.4956 159.82926 152.49374 158.94762 151.75459 C 158.07489 151.01544 156.84594 150.64603 155.26078 150.64603 C 153.3283 150.64603 151.76539 151.3273 150.57207 152.68983 C 149.38764 154.04346 148.79526 156.1227 148.79526 158.92791 C 148.79526 161.22551 149.32959 163.09103 150.39824 164.5248 C 151.47579 165.94967 153.07877 166.66228 155.20717 166.66228 C 157.16636 166.66228 158.65785 165.90959 159.68197 164.40458 C 160.22521 163.61199 160.63058 162.57006 160.89774 161.27877 L 163.48905 161.27877 C 163.2575 163.34483 162.49198 165.07728 161.19179 166.47544 C 159.63334 168.15856 157.53149 169.00013 154.88657 169.00013 C 152.60678 169.00013 150.69194 168.30961 149.1424 166.92927 C 147.10305 165.10365 146.08373 162.28508 146.08373 158.47356 C 146.08373 155.5793 146.84925 153.20617 148.38098 151.35384 C 150.03739 149.34122 152.32164 148.33473 155.23371 148.33473 z M 66.535453 148.86923 L 66.535453 168.49217 L 74.45718 168.49217 C 77.823431 168.49217 80.196557 167.00531 81.576898 164.0309 C 82.360575 162.34777 82.752588 160.46427 82.752588 158.3804 C 82.752588 155.68206 82.088786 153.46871 80.761878 151.74106 C 79.274671 149.82639 77.182067 148.86923 74.483723 148.86923 L 66.535453 148.86923 z M 127.20867 148.86923 L 130.34749 148.86923 L 140.2594 164.76525 L 140.2594 148.86923 L 142.78409 148.86923 L 142.78409 168.49217 L 139.80505 168.49217 L 129.74637 152.60968 L 129.74637 168.49217 L 127.20867 168.49217 L 127.20867 148.86923 z M 165.19924 148.86923 L 168.29798 148.86923 L 173.93546 158.30025 L 179.57243 148.86923 L 182.6847 148.86923 L 175.27093 160.58449 L 175.27093 168.49217 L 172.61301 168.49217 L 172.61301 160.58449 L 165.19924 148.86923 z M 183.32589 148.86923 L 199.24897 148.86923 L 199.24897 151.20708 L 192.63669 151.20708 L 192.63669 168.49217 L 189.93817 168.49217 L 189.93817 151.20708 L 183.32589 151.20708 L 183.32589 148.86923 z M 69.207429 151.15347 L 73.922681 151.15347 C 76.068889 151.15347 77.623061 151.826 78.584847 153.17072 C 79.555538 154.51544 80.040538 156.40305 80.040538 158.83423 C 80.040538 159.46652 79.973747 160.15241 79.840165 160.89156 C 79.608624 162.12941 79.23049 163.14463 78.70507 163.93722 C 78.046068 164.92572 77.199879 165.59363 76.166849 165.94094 C 75.587996 166.12795 74.848672 166.22146 73.949223 166.22146 L 69.207429 166.22146 L 69.207429 151.15347 z M 120.27579 183.29681 C 122.76041 183.29681 124.68809 183.95136 126.05952 185.26046 C 127.43096 186.56956 128.19237 188.05642 128.34377 189.72173 L 125.75246 189.72173 C 125.45858 188.45716 124.87082 187.4553 123.98918 186.71615 C 123.11645 185.977 121.8875 185.6076 120.30234 185.6076 C 118.36986 185.6076 116.80695 186.28886 115.61363 187.65139 C 114.4292 189.00502 113.83682 191.08426 113.83682 193.88947 C 113.83682 196.18707 114.37115 198.05311 115.4398 199.48688 C 116.51735 200.91175 118.12033 201.62384 120.24873 201.62384 C 122.20792 201.62384 123.69993 200.87168 124.72405 199.36666 C 125.26729 198.57408 125.67214 197.53214 125.9393 196.24085 L 128.53113 196.24085 C 128.29959 198.30691 127.53354 200.03885 126.23335 201.437 C 124.6749 203.12013 122.57305 203.96169 119.92813 203.96169 C 117.64834 203.96169 115.73402 203.27169 114.18448 201.89135 C 112.14514 200.06574 111.12529 197.24717 111.12529 193.43564 C 111.12529 190.54138 111.89133 188.16773 113.42306 186.31541 C 115.07947 184.30278 117.36372 183.29681 120.27579 183.29681 z M 27.142282 183.83079 L 35.972189 183.83079 C 37.717653 183.83079 39.124885 184.32504 40.193537 185.31354 C 41.262188 186.29314 41.796514 187.67366 41.796514 189.45474 C 41.796514 190.98648 41.319726 192.32229 40.366846 193.46219 C 39.413965 194.59318 37.949194 195.15884 35.972189 195.15884 L 29.800726 195.15884 L 29.800726 203.45425 L 27.142282 203.45425 L 27.142282 183.83079 z M 131.69701 183.83079 L 135.50408 183.83079 L 141.14104 200.42161 L 146.73793 183.83079 L 150.50493 183.83079 L 150.50493 203.45425 L 147.98024 203.45425 L 147.98024 191.87274 C 147.98024 191.472 147.98949 190.80819 148.0073 189.88203 C 148.02511 188.95587 148.03385 187.96326 148.03385 186.90351 L 142.43696 203.45425 L 139.80505 203.45425 L 134.16809 186.90351 L 134.16809 187.50463 C 134.16809 187.98552 134.17682 188.72022 134.19463 189.70872 C 134.22135 190.68832 134.23471 191.40966 134.23471 191.87274 L 134.23471 203.45425 L 131.69701 203.45425 L 131.69701 183.83079 z M 160.25655 183.83079 L 163.26213 183.83079 L 170.38185 203.45425 L 167.46995 203.45425 L 165.47976 197.57632 L 157.71833 197.57632 L 155.59438 203.45425 L 152.86932 203.45425 L 160.25655 183.83079 z M 173.40096 183.83079 L 176.08595 183.83079 L 176.08595 203.45425 L 173.40096 203.45425 L 173.40096 183.83079 z M 29.800726 186.11503 L 29.800726 192.91468 L 35.090552 192.91468 C 36.283879 192.91468 37.250292 192.66087 37.989443 192.15326 C 38.737499 191.64565 39.111527 190.75066 39.111527 189.46827 C 39.111527 188.0256 38.577201 187.04582 37.508549 186.52931 C 36.920791 186.25324 36.114676 186.11503 35.090552 186.11503 L 29.800726 186.11503 z M 161.64562 186.74321 L 158.47974 195.4123 L 164.62466 195.4123 L 161.64562 186.74321 z M 27.209419 218.79235 L 36.292785 218.79235 C 37.788897 218.79235 39.022473 219.01071 39.993165 219.44708 C 41.836588 220.28419 42.758301 221.82911 42.758301 224.08218 C 42.758301 225.2577 42.513228 226.21948 42.023429 226.96754 C 41.542536 227.71559 40.865896 228.31671 39.993165 228.77089 C 40.759031 229.08258 41.333432 229.49257 41.716365 230.00018 C 42.108204 230.50779 42.32604 231.33137 42.370567 232.47127 L 42.464248 235.10265 C 42.490964 235.8507 42.553129 236.40764 42.651089 236.77276 C 42.811386 237.39614 43.096534 237.79689 43.506183 237.975 L 43.506183 238.41582 L 40.246622 238.41582 C 40.157568 238.24661 40.086672 238.02826 40.033239 237.76109 C 39.979806 237.49393 39.935106 236.97759 39.899484 236.21172 L 39.739186 232.93863 C 39.676848 231.65625 39.200581 230.79722 38.310038 230.36085 C 37.802429 230.12041 37.005045 230.00018 35.918583 230.00018 L 29.867343 230.00018 L 29.867343 238.41582 L 27.209419 238.41582 L 27.209419 218.79235 z M 85.250735 218.79235 L 85.250735 238.41582 L 87.935722 238.41582 L 87.935722 218.79235 L 85.250735 218.79235 z M 29.867343 221.0766 L 29.867343 227.78256 L 36.012264 227.78256 C 37.259024 227.78256 38.242901 227.53338 38.96424 227.03468 C 39.694485 226.53597 40.059782 225.63635 40.059782 224.33616 C 40.059782 222.938 39.552172 221.98495 38.536953 221.47734 C 37.993722 221.21018 37.267756 221.0766 36.359402 221.0766 L 29.867343 221.0766 z " /></g></g></svg>
